<svg xmlns="http://www.w3.org/2000/svg" xmlns:xlink="http://www.w3.org/1999/xlink" width="944" zoomAndPan="magnify" viewBox="0 0 708 167.999997" height="224" preserveAspectRatio="xMidYMid meet" version="1.0"><defs><g/><clipPath id="b2cc0b95cb"><path d="M 86.195312 0 L 708 0 L 708 168 L 86.195312 168 Z M 86.195312 0 " clip-rule="nonzero"/></clipPath><clipPath id="f24c76baa7"><path d="M 124.445312 0 L 669.75 0 C 679.894531 0 689.625 4.03125 696.796875 11.203125 C 703.96875 18.375 708 28.105469 708 38.25 L 708 129.75 C 708 139.894531 703.96875 149.625 696.796875 156.796875 C 689.625 163.96875 679.894531 168 669.75 168 L 124.445312 168 C 114.300781 168 104.570312 163.96875 97.398438 156.796875 C 90.222656 149.625 86.195312 139.894531 86.195312 129.75 L 86.195312 38.25 C 86.195312 28.105469 90.222656 18.375 97.398438 11.203125 C 104.570312 4.03125 114.300781 0 124.445312 0 Z M 124.445312 0 " clip-rule="nonzero"/></clipPath><clipPath id="99bffb04fd"><path d="M 0 0 L 125.535156 0 L 125.535156 168 L 0 168 Z M 0 0 " clip-rule="nonzero"/></clipPath><clipPath id="b46edc12c8"><path d="M 38.25 0 L 87.285156 0 C 97.429688 0 107.160156 4.03125 114.332031 11.203125 C 121.507812 18.375 125.535156 28.105469 125.535156 38.25 L 125.535156 129.75 C 125.535156 139.894531 121.507812 149.625 114.332031 156.796875 C 107.160156 163.96875 97.429688 168 87.285156 168 L 38.25 168 C 28.105469 168 18.375 163.96875 11.203125 156.796875 C 4.03125 149.625 0 139.894531 0 129.75 L 0 38.25 C 0 28.105469 4.03125 18.375 11.203125 11.203125 C 18.375 4.03125 28.105469 0 38.25 0 Z M 38.25 0 " clip-rule="nonzero"/></clipPath><clipPath id="63ff5ef297"><path d="M 86.195312 0 L 134.222656 0 L 134.222656 168 L 86.195312 168 Z M 86.195312 0 " clip-rule="nonzero"/></clipPath></defs><g fill="#ffffff" fill-opacity="1"><g transform="translate(86.205542, 102.105035)"><g><path d="M 32.328125 -2.578125 C 32.328125 -2.140625 32.300781 -1.753906 32.25 -1.421875 C 32.207031 -1.097656 32.125 -0.828125 32 -0.609375 C 31.882812 -0.398438 31.75 -0.242188 31.59375 -0.140625 C 31.4375 -0.046875 31.257812 0 31.0625 0 L 8.546875 0 C 7.992188 0 7.46875 -0.1875 6.96875 -0.5625 C 6.476562 -0.9375 6.234375 -1.59375 6.234375 -2.53125 L 6.234375 -44.359375 C 6.234375 -45.304688 6.476562 -45.96875 6.96875 -46.34375 C 7.46875 -46.71875 7.992188 -46.90625 8.546875 -46.90625 L 30.8125 -46.90625 C 31 -46.90625 31.171875 -46.851562 31.328125 -46.75 C 31.492188 -46.65625 31.625 -46.5 31.71875 -46.28125 C 31.8125 -46.070312 31.890625 -45.800781 31.953125 -45.46875 C 32.015625 -45.144531 32.046875 -44.742188 32.046875 -44.265625 C 32.046875 -43.828125 32.015625 -43.441406 31.953125 -43.109375 C 31.890625 -42.785156 31.8125 -42.519531 31.71875 -42.3125 C 31.625 -42.113281 31.492188 -41.960938 31.328125 -41.859375 C 31.171875 -41.765625 31 -41.71875 30.8125 -41.71875 L 12.46875 -41.71875 L 12.46875 -27 L 28.203125 -27 C 28.390625 -27 28.5625 -26.941406 28.71875 -26.828125 C 28.882812 -26.722656 29.019531 -26.570312 29.125 -26.375 C 29.226562 -26.1875 29.304688 -25.921875 29.359375 -25.578125 C 29.410156 -25.242188 29.4375 -24.847656 29.4375 -24.390625 C 29.4375 -23.953125 29.410156 -23.578125 29.359375 -23.265625 C 29.304688 -22.953125 29.226562 -22.695312 29.125 -22.5 C 29.019531 -22.3125 28.882812 -22.175781 28.71875 -22.09375 C 28.5625 -22.007812 28.390625 -21.96875 28.203125 -21.96875 L 12.46875 -21.96875 L 12.46875 -5.1875 L 31.0625 -5.1875 C 31.257812 -5.1875 31.4375 -5.132812 31.59375 -5.03125 C 31.75 -4.9375 31.882812 -4.785156 32 -4.578125 C 32.125 -4.378906 32.207031 -4.113281 32.25 -3.78125 C 32.300781 -3.457031 32.328125 -3.054688 32.328125 -2.578125 Z M 32.328125 -2.578125 "/></g></g></g><g fill="#ffffff" fill-opacity="1"><g transform="translate(122.452326, 102.105035)"><g><path d="M 37.546875 -6.640625 C 37.546875 -6.242188 37.535156 -5.898438 37.515625 -5.609375 C 37.492188 -5.328125 37.453125 -5.078125 37.390625 -4.859375 C 37.328125 -4.640625 37.25 -4.445312 37.15625 -4.28125 C 37.0625 -4.113281 36.890625 -3.90625 36.640625 -3.65625 C 36.398438 -3.414062 35.894531 -3.046875 35.125 -2.546875 C 34.351562 -2.054688 33.390625 -1.578125 32.234375 -1.109375 C 31.085938 -0.640625 29.769531 -0.242188 28.28125 0.078125 C 26.800781 0.410156 25.179688 0.578125 23.421875 0.578125 C 20.367188 0.578125 17.613281 0.0703125 15.15625 -0.9375 C 12.707031 -1.957031 10.617188 -3.457031 8.890625 -5.4375 C 7.171875 -7.414062 5.84375 -9.859375 4.90625 -12.765625 C 3.976562 -15.679688 3.515625 -19.035156 3.515625 -22.828125 C 3.515625 -26.722656 4.015625 -30.191406 5.015625 -33.234375 C 6.023438 -36.285156 7.4375 -38.867188 9.25 -40.984375 C 11.0625 -43.097656 13.226562 -44.707031 15.75 -45.8125 C 18.269531 -46.925781 21.066406 -47.484375 24.140625 -47.484375 C 25.492188 -47.484375 26.8125 -47.351562 28.09375 -47.09375 C 29.375 -46.84375 30.554688 -46.523438 31.640625 -46.140625 C 32.734375 -45.753906 33.703125 -45.304688 34.546875 -44.796875 C 35.390625 -44.296875 35.972656 -43.878906 36.296875 -43.546875 C 36.628906 -43.222656 36.84375 -42.972656 36.9375 -42.796875 C 37.03125 -42.628906 37.109375 -42.429688 37.171875 -42.203125 C 37.234375 -41.972656 37.28125 -41.703125 37.3125 -41.390625 C 37.351562 -41.078125 37.375 -40.703125 37.375 -40.265625 C 37.375 -39.785156 37.347656 -39.375 37.296875 -39.03125 C 37.242188 -38.695312 37.171875 -38.414062 37.078125 -38.1875 C 36.984375 -37.957031 36.867188 -37.785156 36.734375 -37.671875 C 36.597656 -37.566406 36.4375 -37.515625 36.25 -37.515625 C 35.90625 -37.515625 35.429688 -37.75 34.828125 -38.21875 C 34.222656 -38.6875 33.441406 -39.207031 32.484375 -39.78125 C 31.535156 -40.351562 30.378906 -40.875 29.015625 -41.34375 C 27.648438 -41.8125 26.015625 -42.046875 24.109375 -42.046875 C 22.023438 -42.046875 20.128906 -41.628906 18.421875 -40.796875 C 16.722656 -39.960938 15.269531 -38.734375 14.0625 -37.109375 C 12.851562 -35.492188 11.914062 -33.519531 11.25 -31.1875 C 10.59375 -28.851562 10.265625 -26.191406 10.265625 -23.203125 C 10.265625 -20.222656 10.582031 -17.59375 11.21875 -15.3125 C 11.851562 -13.03125 12.769531 -11.117188 13.96875 -9.578125 C 15.164062 -8.046875 16.632812 -6.882812 18.375 -6.09375 C 20.113281 -5.3125 22.082031 -4.921875 24.28125 -4.921875 C 26.144531 -4.921875 27.769531 -5.148438 29.15625 -5.609375 C 30.550781 -6.078125 31.738281 -6.59375 32.71875 -7.15625 C 33.695312 -7.726562 34.5 -8.242188 35.125 -8.703125 C 35.75 -9.160156 36.242188 -9.390625 36.609375 -9.390625 C 36.773438 -9.390625 36.914062 -9.351562 37.03125 -9.28125 C 37.15625 -9.207031 37.253906 -9.066406 37.328125 -8.859375 C 37.398438 -8.648438 37.453125 -8.363281 37.484375 -8 C 37.523438 -7.644531 37.546875 -7.191406 37.546875 -6.640625 Z M 37.546875 -6.640625 "/></g></g></g><g fill="#ffffff" fill-opacity="1"><g transform="translate(162.033814, 102.105035)"><g><path d="M 57.234375 -0.9375 C 57.234375 -0.75 57.179688 -0.582031 57.078125 -0.4375 C 56.984375 -0.289062 56.816406 -0.175781 56.578125 -0.09375 C 56.335938 -0.0078125 56.03125 0.0625 55.65625 0.125 C 55.28125 0.1875 54.789062 0.21875 54.1875 0.21875 C 53.632812 0.21875 53.15625 0.1875 52.75 0.125 C 52.351562 0.0625 52.039062 -0.0078125 51.8125 -0.09375 C 51.582031 -0.175781 51.421875 -0.289062 51.328125 -0.4375 C 51.234375 -0.582031 51.1875 -0.75 51.1875 -0.9375 L 51.1875 -41.796875 L 51.109375 -41.796875 L 34.40625 -0.765625 C 34.332031 -0.585938 34.226562 -0.4375 34.09375 -0.3125 C 33.957031 -0.195312 33.757812 -0.0976562 33.5 -0.015625 C 33.25 0.0664062 32.945312 0.125 32.59375 0.15625 C 32.25 0.195312 31.835938 0.21875 31.359375 0.21875 C 30.847656 0.21875 30.410156 0.191406 30.046875 0.140625 C 29.679688 0.0976562 29.378906 0.0351562 29.140625 -0.046875 C 28.898438 -0.140625 28.710938 -0.242188 28.578125 -0.359375 C 28.441406 -0.484375 28.351562 -0.617188 28.3125 -0.765625 L 12.328125 -41.796875 L 12.28125 -41.796875 L 12.28125 -0.9375 C 12.28125 -0.75 12.234375 -0.582031 12.140625 -0.4375 C 12.046875 -0.289062 11.875 -0.175781 11.625 -0.09375 C 11.382812 -0.0078125 11.070312 0.0625 10.6875 0.125 C 10.300781 0.1875 9.804688 0.21875 9.203125 0.21875 C 8.628906 0.21875 8.144531 0.1875 7.75 0.125 C 7.363281 0.0625 7.054688 -0.0078125 6.828125 -0.09375 C 6.597656 -0.175781 6.441406 -0.289062 6.359375 -0.4375 C 6.273438 -0.582031 6.234375 -0.75 6.234375 -0.9375 L 6.234375 -44.078125 C 6.234375 -45.085938 6.5 -45.8125 7.03125 -46.25 C 7.5625 -46.6875 8.15625 -46.90625 8.8125 -46.90625 L 12.578125 -46.90625 C 13.347656 -46.90625 14.023438 -46.832031 14.609375 -46.6875 C 15.191406 -46.539062 15.695312 -46.3125 16.125 -46 C 16.5625 -45.6875 16.925781 -45.285156 17.21875 -44.796875 C 17.507812 -44.316406 17.765625 -43.75 17.984375 -43.09375 L 31.578125 -9.140625 L 31.75 -9.140625 L 45.890625 -42.984375 C 46.148438 -43.710938 46.4375 -44.328125 46.75 -44.828125 C 47.070312 -45.335938 47.421875 -45.742188 47.796875 -46.046875 C 48.171875 -46.347656 48.585938 -46.566406 49.046875 -46.703125 C 49.503906 -46.835938 50.035156 -46.90625 50.640625 -46.90625 L 54.59375 -46.90625 C 54.945312 -46.90625 55.285156 -46.847656 55.609375 -46.734375 C 55.941406 -46.628906 56.222656 -46.460938 56.453125 -46.234375 C 56.679688 -46.003906 56.867188 -45.710938 57.015625 -45.359375 C 57.160156 -45.015625 57.234375 -44.585938 57.234375 -44.078125 Z M 57.234375 -0.9375 "/></g></g></g><g fill="#ffffff" fill-opacity="1"><g transform="translate(225.501933, 102.105035)"><g><path d="M 33.5 -2.6875 C 33.5 -2.25 33.46875 -1.859375 33.40625 -1.515625 C 33.34375 -1.179688 33.253906 -0.898438 33.140625 -0.671875 C 33.035156 -0.441406 32.890625 -0.269531 32.703125 -0.15625 C 32.523438 -0.0507812 32.328125 0 32.109375 0 L 6.203125 0 C 5.859375 0 5.554688 -0.0390625 5.296875 -0.125 C 5.046875 -0.207031 4.832031 -0.34375 4.65625 -0.53125 C 4.476562 -0.726562 4.34375 -1.007812 4.25 -1.375 C 4.164062 -1.738281 4.125 -2.1875 4.125 -2.71875 C 4.125 -3.195312 4.140625 -3.617188 4.171875 -3.984375 C 4.210938 -4.347656 4.296875 -4.664062 4.421875 -4.9375 C 4.546875 -5.21875 4.695312 -5.5 4.875 -5.78125 C 5.050781 -6.0625 5.285156 -6.359375 5.578125 -6.671875 L 14.6875 -16.3125 C 16.78125 -18.53125 18.460938 -20.519531 19.734375 -22.28125 C 21.003906 -24.050781 21.984375 -25.660156 22.671875 -27.109375 C 23.359375 -28.554688 23.8125 -29.875 24.03125 -31.0625 C 24.25 -32.25 24.359375 -33.363281 24.359375 -34.40625 C 24.359375 -35.4375 24.1875 -36.414062 23.84375 -37.34375 C 23.507812 -38.28125 23.019531 -39.097656 22.375 -39.796875 C 21.738281 -40.492188 20.9375 -41.046875 19.96875 -41.453125 C 19 -41.867188 17.890625 -42.078125 16.640625 -42.078125 C 15.160156 -42.078125 13.832031 -41.867188 12.65625 -41.453125 C 11.488281 -41.046875 10.460938 -40.601562 9.578125 -40.125 C 8.703125 -39.644531 7.96875 -39.195312 7.375 -38.78125 C 6.78125 -38.375 6.335938 -38.171875 6.046875 -38.171875 C 5.878906 -38.171875 5.726562 -38.21875 5.59375 -38.3125 C 5.46875 -38.40625 5.359375 -38.5625 5.265625 -38.78125 C 5.179688 -39 5.113281 -39.289062 5.0625 -39.65625 C 5.019531 -40.019531 5 -40.453125 5 -40.953125 C 5 -41.316406 5.007812 -41.628906 5.03125 -41.890625 C 5.0625 -42.160156 5.101562 -42.390625 5.15625 -42.578125 C 5.21875 -42.773438 5.296875 -42.957031 5.390625 -43.125 C 5.492188 -43.300781 5.691406 -43.515625 5.984375 -43.765625 C 6.273438 -44.023438 6.773438 -44.367188 7.484375 -44.796875 C 8.191406 -45.234375 9.082031 -45.660156 10.15625 -46.078125 C 11.238281 -46.503906 12.425781 -46.863281 13.71875 -47.15625 C 15.007812 -47.445312 16.367188 -47.59375 17.796875 -47.59375 C 20.066406 -47.59375 22.050781 -47.269531 23.75 -46.625 C 25.457031 -45.988281 26.875 -45.113281 28 -44 C 29.125 -42.894531 29.960938 -41.601562 30.515625 -40.125 C 31.078125 -38.65625 31.359375 -37.082031 31.359375 -35.40625 C 31.359375 -33.914062 31.222656 -32.425781 30.953125 -30.9375 C 30.691406 -29.445312 30.128906 -27.835938 29.265625 -26.109375 C 28.410156 -24.390625 27.171875 -22.472656 25.546875 -20.359375 C 23.929688 -18.242188 21.785156 -15.804688 19.109375 -13.046875 L 11.671875 -5.296875 L 32.078125 -5.296875 C 32.273438 -5.296875 32.460938 -5.238281 32.640625 -5.125 C 32.816406 -5.019531 32.972656 -4.859375 33.109375 -4.640625 C 33.242188 -4.421875 33.34375 -4.144531 33.40625 -3.8125 C 33.46875 -3.488281 33.5 -3.113281 33.5 -2.6875 Z M 33.5 -2.6875 "/></g></g></g><g fill="#ffffff" fill-opacity="1"><g transform="translate(263.126095, 102.105035)"><g><path d="M 35.484375 -13.34375 C 35.484375 -12.539062 35.363281 -11.910156 35.125 -11.453125 C 34.882812 -10.992188 34.546875 -10.765625 34.109375 -10.765625 L 28.8125 -10.765625 L 28.8125 -0.90625 C 28.8125 -0.707031 28.765625 -0.539062 28.671875 -0.40625 C 28.578125 -0.28125 28.40625 -0.164062 28.15625 -0.0625 C 27.914062 0.03125 27.601562 0.0976562 27.21875 0.140625 C 26.832031 0.191406 26.335938 0.21875 25.734375 0.21875 C 25.148438 0.21875 24.664062 0.191406 24.28125 0.140625 C 23.894531 0.0976562 23.585938 0.03125 23.359375 -0.0625 C 23.128906 -0.164062 22.972656 -0.28125 22.890625 -0.40625 C 22.804688 -0.539062 22.765625 -0.707031 22.765625 -0.90625 L 22.765625 -10.765625 L 3.40625 -10.765625 C 3.113281 -10.765625 2.867188 -10.800781 2.671875 -10.875 C 2.484375 -10.945312 2.3125 -11.078125 2.15625 -11.265625 C 2 -11.460938 1.890625 -11.742188 1.828125 -12.109375 C 1.765625 -12.472656 1.734375 -12.941406 1.734375 -13.515625 C 1.734375 -13.972656 1.742188 -14.382812 1.765625 -14.75 C 1.796875 -15.113281 1.847656 -15.445312 1.921875 -15.75 C 1.992188 -16.050781 2.085938 -16.335938 2.203125 -16.609375 C 2.328125 -16.890625 2.472656 -17.1875 2.640625 -17.5 L 19.53125 -46 C 19.65625 -46.1875 19.832031 -46.351562 20.0625 -46.5 C 20.289062 -46.644531 20.585938 -46.765625 20.953125 -46.859375 C 21.316406 -46.960938 21.765625 -47.03125 22.296875 -47.0625 C 22.828125 -47.101562 23.453125 -47.125 24.171875 -47.125 C 24.972656 -47.125 25.671875 -47.09375 26.265625 -47.03125 C 26.859375 -46.96875 27.332031 -46.890625 27.6875 -46.796875 C 28.050781 -46.703125 28.328125 -46.570312 28.515625 -46.40625 C 28.710938 -46.25 28.8125 -46.066406 28.8125 -45.859375 L 28.8125 -15.90625 L 34.109375 -15.90625 C 34.515625 -15.90625 34.84375 -15.691406 35.09375 -15.265625 C 35.351562 -14.847656 35.484375 -14.207031 35.484375 -13.34375 Z M 22.765625 -41.640625 L 22.6875 -41.640625 L 7.4375 -15.90625 L 22.765625 -15.90625 Z M 22.765625 -41.640625 "/></g></g></g><g fill="#ffffff" fill-opacity="1"><g transform="translate(300.750267, 102.105035)"><g><path d="M 33.5 -2.6875 C 33.5 -2.25 33.46875 -1.859375 33.40625 -1.515625 C 33.34375 -1.179688 33.253906 -0.898438 33.140625 -0.671875 C 33.035156 -0.441406 32.890625 -0.269531 32.703125 -0.15625 C 32.523438 -0.0507812 32.328125 0 32.109375 0 L 6.203125 0 C 5.859375 0 5.554688 -0.0390625 5.296875 -0.125 C 5.046875 -0.207031 4.832031 -0.34375 4.65625 -0.53125 C 4.476562 -0.726562 4.34375 -1.007812 4.25 -1.375 C 4.164062 -1.738281 4.125 -2.1875 4.125 -2.71875 C 4.125 -3.195312 4.140625 -3.617188 4.171875 -3.984375 C 4.210938 -4.347656 4.296875 -4.664062 4.421875 -4.9375 C 4.546875 -5.21875 4.695312 -5.5 4.875 -5.78125 C 5.050781 -6.0625 5.285156 -6.359375 5.578125 -6.671875 L 14.6875 -16.3125 C 16.78125 -18.53125 18.460938 -20.519531 19.734375 -22.28125 C 21.003906 -24.050781 21.984375 -25.660156 22.671875 -27.109375 C 23.359375 -28.554688 23.8125 -29.875 24.03125 -31.0625 C 24.25 -32.25 24.359375 -33.363281 24.359375 -34.40625 C 24.359375 -35.4375 24.1875 -36.414062 23.84375 -37.34375 C 23.507812 -38.28125 23.019531 -39.097656 22.375 -39.796875 C 21.738281 -40.492188 20.9375 -41.046875 19.96875 -41.453125 C 19 -41.867188 17.890625 -42.078125 16.640625 -42.078125 C 15.160156 -42.078125 13.832031 -41.867188 12.65625 -41.453125 C 11.488281 -41.046875 10.460938 -40.601562 9.578125 -40.125 C 8.703125 -39.644531 7.96875 -39.195312 7.375 -38.78125 C 6.78125 -38.375 6.335938 -38.171875 6.046875 -38.171875 C 5.878906 -38.171875 5.726562 -38.21875 5.59375 -38.3125 C 5.46875 -38.40625 5.359375 -38.5625 5.265625 -38.78125 C 5.179688 -39 5.113281 -39.289062 5.0625 -39.65625 C 5.019531 -40.019531 5 -40.453125 5 -40.953125 C 5 -41.316406 5.007812 -41.628906 5.03125 -41.890625 C 5.0625 -42.160156 5.101562 -42.390625 5.15625 -42.578125 C 5.21875 -42.773438 5.296875 -42.957031 5.390625 -43.125 C 5.492188 -43.300781 5.691406 -43.515625 5.984375 -43.765625 C 6.273438 -44.023438 6.773438 -44.367188 7.484375 -44.796875 C 8.191406 -45.234375 9.082031 -45.660156 10.15625 -46.078125 C 11.238281 -46.503906 12.425781 -46.863281 13.71875 -47.15625 C 15.007812 -47.445312 16.367188 -47.59375 17.796875 -47.59375 C 20.066406 -47.59375 22.050781 -47.269531 23.75 -46.625 C 25.457031 -45.988281 26.875 -45.113281 28 -44 C 29.125 -42.894531 29.960938 -41.601562 30.515625 -40.125 C 31.078125 -38.65625 31.359375 -37.082031 31.359375 -35.40625 C 31.359375 -33.914062 31.222656 -32.425781 30.953125 -30.9375 C 30.691406 -29.445312 30.128906 -27.835938 29.265625 -26.109375 C 28.410156 -24.390625 27.171875 -22.472656 25.546875 -20.359375 C 23.929688 -18.242188 21.785156 -15.804688 19.109375 -13.046875 L 11.671875 -5.296875 L 32.078125 -5.296875 C 32.273438 -5.296875 32.460938 -5.238281 32.640625 -5.125 C 32.816406 -5.019531 32.972656 -4.859375 33.109375 -4.640625 C 33.242188 -4.421875 33.34375 -4.144531 33.40625 -3.8125 C 33.46875 -3.488281 33.5 -3.113281 33.5 -2.6875 Z M 33.5 -2.6875 "/></g></g></g><g fill="#ffffff" fill-opacity="1"><g transform="translate(338.374429, 102.105035)"><g><path d="M 33.125 -13.40625 C 33.125 -11.257812 32.75 -9.320312 32 -7.59375 C 31.25 -5.863281 30.171875 -4.382812 28.765625 -3.15625 C 27.367188 -1.925781 25.644531 -0.976562 23.59375 -0.3125 C 21.539062 0.351562 19.222656 0.6875 16.640625 0.6875 C 15.066406 0.6875 13.597656 0.554688 12.234375 0.296875 C 10.867188 0.046875 9.65625 -0.25 8.59375 -0.59375 C 7.53125 -0.945312 6.644531 -1.3125 5.9375 -1.6875 C 5.238281 -2.0625 4.796875 -2.332031 4.609375 -2.5 C 4.429688 -2.664062 4.296875 -2.832031 4.203125 -3 C 4.109375 -3.175781 4.023438 -3.382812 3.953125 -3.625 C 3.878906 -3.863281 3.820312 -4.15625 3.78125 -4.5 C 3.75 -4.851562 3.734375 -5.285156 3.734375 -5.796875 C 3.734375 -6.671875 3.816406 -7.273438 3.984375 -7.609375 C 4.148438 -7.953125 4.394531 -8.125 4.71875 -8.125 C 4.925781 -8.125 5.347656 -7.925781 5.984375 -7.53125 C 6.628906 -7.144531 7.453125 -6.726562 8.453125 -6.28125 C 9.460938 -5.84375 10.632812 -5.425781 11.96875 -5.03125 C 13.3125 -4.644531 14.804688 -4.453125 16.453125 -4.453125 C 18.046875 -4.453125 19.445312 -4.65625 20.65625 -5.0625 C 21.863281 -5.476562 22.878906 -6.0625 23.703125 -6.8125 C 24.523438 -7.5625 25.140625 -8.445312 25.546875 -9.46875 C 25.960938 -10.5 26.171875 -11.617188 26.171875 -12.828125 C 26.171875 -14.160156 25.910156 -15.359375 25.390625 -16.421875 C 24.867188 -17.484375 24.109375 -18.398438 23.109375 -19.171875 C 22.109375 -19.941406 20.875 -20.53125 19.40625 -20.9375 C 17.945312 -21.351562 16.285156 -21.5625 14.421875 -21.5625 L 9.96875 -21.5625 C 9.769531 -21.5625 9.582031 -21.601562 9.40625 -21.6875 C 9.226562 -21.78125 9.070312 -21.921875 8.9375 -22.109375 C 8.800781 -22.304688 8.691406 -22.5625 8.609375 -22.875 C 8.523438 -23.1875 8.484375 -23.597656 8.484375 -24.109375 C 8.484375 -24.566406 8.519531 -24.945312 8.59375 -25.25 C 8.664062 -25.550781 8.765625 -25.789062 8.890625 -25.96875 C 9.023438 -26.15625 9.175781 -26.289062 9.34375 -26.375 C 9.519531 -26.457031 9.71875 -26.5 9.9375 -26.5 L 14.03125 -26.5 C 15.625 -26.5 17.050781 -26.703125 18.3125 -27.109375 C 19.582031 -27.523438 20.660156 -28.117188 21.546875 -28.890625 C 22.429688 -29.660156 23.109375 -30.582031 23.578125 -31.65625 C 24.046875 -32.738281 24.28125 -33.941406 24.28125 -35.265625 C 24.28125 -36.234375 24.125 -37.15625 23.8125 -38.03125 C 23.5 -38.914062 23.023438 -39.6875 22.390625 -40.34375 C 21.765625 -41 20.960938 -41.515625 19.984375 -41.890625 C 19.003906 -42.265625 17.875 -42.453125 16.59375 -42.453125 C 15.195312 -42.453125 13.910156 -42.238281 12.734375 -41.8125 C 11.566406 -41.382812 10.523438 -40.929688 9.609375 -40.453125 C 8.691406 -39.972656 7.929688 -39.519531 7.328125 -39.09375 C 6.722656 -38.664062 6.296875 -38.453125 6.046875 -38.453125 C 5.878906 -38.453125 5.726562 -38.484375 5.59375 -38.546875 C 5.46875 -38.609375 5.359375 -38.726562 5.265625 -38.90625 C 5.179688 -39.09375 5.117188 -39.347656 5.078125 -39.671875 C 5.046875 -39.992188 5.03125 -40.421875 5.03125 -40.953125 C 5.03125 -41.316406 5.039062 -41.640625 5.0625 -41.921875 C 5.09375 -42.203125 5.144531 -42.441406 5.21875 -42.640625 C 5.289062 -42.847656 5.375 -43.035156 5.46875 -43.203125 C 5.570312 -43.367188 5.738281 -43.566406 5.96875 -43.796875 C 6.195312 -44.035156 6.660156 -44.367188 7.359375 -44.796875 C 8.054688 -45.234375 8.914062 -45.660156 9.9375 -46.078125 C 10.96875 -46.503906 12.15625 -46.863281 13.5 -47.15625 C 14.84375 -47.445312 16.285156 -47.59375 17.828125 -47.59375 C 20.003906 -47.59375 21.914062 -47.3125 23.5625 -46.75 C 25.207031 -46.195312 26.578125 -45.410156 27.671875 -44.390625 C 28.773438 -43.378906 29.597656 -42.164062 30.140625 -40.75 C 30.679688 -39.34375 30.953125 -37.78125 30.953125 -36.0625 C 30.953125 -34.59375 30.757812 -33.222656 30.375 -31.953125 C 29.988281 -30.679688 29.421875 -29.554688 28.671875 -28.578125 C 27.921875 -27.597656 27 -26.765625 25.90625 -26.078125 C 24.820312 -25.390625 23.566406 -24.910156 22.140625 -24.640625 L 22.140625 -24.578125 C 23.765625 -24.410156 25.242188 -24.003906 26.578125 -23.359375 C 27.921875 -22.722656 29.078125 -21.921875 30.046875 -20.953125 C 31.015625 -19.984375 31.769531 -18.851562 32.3125 -17.5625 C 32.851562 -16.269531 33.125 -14.882812 33.125 -13.40625 Z M 33.125 -13.40625 "/></g></g></g><g clip-path="url(#b2cc0b95cb)"><g clip-path="url(#f24c76baa7)"><path fill="#969696" d="M 86.195312 0 L 708.320312 0 L 708.320312 168 L 86.195312 168 Z M 86.195312 0 " fill-opacity="1" fill-rule="nonzero"/></g></g><g fill="#ffffff" fill-opacity="1"><g transform="translate(195.331379, 113.999993)"><g><path d="M 18.890625 -22.546875 L 18.890625 0 L 5.71875 0 L 5.71875 -63.984375 L 30.671875 -63.984375 C 35.472656 -63.984375 39.695312 -63.101562 43.34375 -61.34375 C 47 -59.59375 49.804688 -57.097656 51.765625 -53.859375 C 53.734375 -50.617188 54.71875 -46.929688 54.71875 -42.796875 C 54.71875 -36.535156 52.570312 -31.59375 48.28125 -27.96875 C 43.988281 -24.351562 38.046875 -22.546875 30.453125 -22.546875 Z M 18.890625 -33.21875 L 30.671875 -33.21875 C 34.160156 -33.21875 36.816406 -34.035156 38.640625 -35.671875 C 40.472656 -37.316406 41.390625 -39.664062 41.390625 -42.71875 C 41.390625 -45.851562 40.46875 -48.382812 38.625 -50.3125 C 36.78125 -52.25 34.234375 -53.25 30.984375 -53.3125 L 18.890625 -53.3125 Z M 18.890625 -33.21875 "/></g></g><g transform="translate(253.383133, 113.999993)"><g><path d="M 26.765625 0.875 C 19.785156 0.875 14.109375 -1.257812 9.734375 -5.53125 C 5.359375 -9.8125 3.171875 -15.507812 3.171875 -22.625 L 3.171875 -23.859375 C 3.171875 -28.640625 4.09375 -32.910156 5.9375 -36.671875 C 7.78125 -40.429688 10.394531 -43.328125 13.78125 -45.359375 C 17.164062 -47.398438 21.023438 -48.421875 25.359375 -48.421875 C 31.859375 -48.421875 36.972656 -46.367188 40.703125 -42.265625 C 44.441406 -38.171875 46.3125 -32.359375 46.3125 -24.828125 L 46.3125 -19.640625 L 16.046875 -19.640625 C 16.453125 -16.535156 17.6875 -14.046875 19.75 -12.171875 C 21.820312 -10.296875 24.4375 -9.359375 27.59375 -9.359375 C 32.488281 -9.359375 36.3125 -11.128906 39.0625 -14.671875 L 45.3125 -7.6875 C 43.40625 -4.988281 40.828125 -2.882812 37.578125 -1.375 C 34.328125 0.125 30.722656 0.875 26.765625 0.875 Z M 25.3125 -38.140625 C 22.789062 -38.140625 20.742188 -37.289062 19.171875 -35.59375 C 17.609375 -33.894531 16.609375 -31.460938 16.171875 -28.296875 L 33.84375 -28.296875 L 33.84375 -29.3125 C 33.78125 -32.125 33.015625 -34.296875 31.546875 -35.828125 C 30.085938 -37.367188 28.007812 -38.140625 25.3125 -38.140625 Z M 25.3125 -38.140625 "/></g></g><g transform="translate(302.030591, 113.999993)"><g><path d="M 31.59375 -35.640625 C 29.863281 -35.867188 28.34375 -35.984375 27.03125 -35.984375 C 22.21875 -35.984375 19.066406 -34.359375 17.578125 -31.109375 L 17.578125 0 L 4.875 0 L 4.875 -47.546875 L 16.875 -47.546875 L 17.234375 -41.875 C 19.773438 -46.238281 23.300781 -48.421875 27.8125 -48.421875 C 29.21875 -48.421875 30.535156 -48.234375 31.765625 -47.859375 Z M 31.59375 -35.640625 "/></g></g><g transform="translate(334.857737, 113.999993)"><g><path d="M 30.625 -13.140625 C 30.625 -14.691406 29.851562 -15.914062 28.3125 -16.8125 C 26.78125 -17.707031 24.316406 -18.503906 20.921875 -19.203125 C 9.609375 -21.578125 3.953125 -26.382812 3.953125 -33.625 C 3.953125 -37.84375 5.703125 -41.363281 9.203125 -44.1875 C 12.703125 -47.007812 17.28125 -48.421875 22.9375 -48.421875 C 28.976562 -48.421875 33.804688 -47 37.421875 -44.15625 C 41.035156 -41.320312 42.84375 -37.632812 42.84375 -33.09375 L 30.140625 -33.09375 C 30.140625 -34.90625 29.550781 -36.40625 28.375 -37.59375 C 27.207031 -38.78125 25.378906 -39.375 22.890625 -39.375 C 20.753906 -39.375 19.097656 -38.890625 17.921875 -37.921875 C 16.753906 -36.953125 16.171875 -35.722656 16.171875 -34.234375 C 16.171875 -32.828125 16.835938 -31.691406 18.171875 -30.828125 C 19.503906 -29.960938 21.75 -29.210938 24.90625 -28.578125 C 28.070312 -27.953125 30.742188 -27.242188 32.921875 -26.453125 C 39.628906 -23.992188 42.984375 -19.734375 42.984375 -13.671875 C 42.984375 -9.328125 41.117188 -5.816406 37.390625 -3.140625 C 33.671875 -0.460938 28.867188 0.875 22.984375 0.875 C 18.992188 0.875 15.453125 0.164062 12.359375 -1.25 C 9.273438 -2.675781 6.851562 -4.625 5.09375 -7.09375 C 3.34375 -9.570312 2.46875 -12.25 2.46875 -15.125 L 14.5 -15.125 C 14.613281 -12.863281 15.445312 -11.128906 17 -9.921875 C 18.5625 -8.722656 20.644531 -8.125 23.25 -8.125 C 25.675781 -8.125 27.507812 -8.585938 28.75 -9.515625 C 30 -10.441406 30.625 -11.648438 30.625 -13.140625 Z M 30.625 -13.140625 "/></g></g><g transform="translate(381.132149, 113.999993)"><g><path d="M 2.90625 -24.21875 C 2.90625 -28.9375 3.8125 -33.140625 5.625 -36.828125 C 7.4375 -40.515625 10.050781 -43.367188 13.46875 -45.390625 C 16.882812 -47.410156 20.847656 -48.421875 25.359375 -48.421875 C 31.773438 -48.421875 37.007812 -46.457031 41.0625 -42.53125 C 45.125 -38.613281 47.390625 -33.285156 47.859375 -26.546875 L 47.9375 -23.296875 C 47.9375 -15.992188 45.898438 -10.140625 41.828125 -5.734375 C 37.765625 -1.328125 32.300781 0.875 25.4375 0.875 C 18.582031 0.875 13.113281 -1.320312 9.03125 -5.71875 C 4.945312 -10.113281 2.90625 -16.085938 2.90625 -23.640625 Z M 15.59375 -23.296875 C 15.59375 -18.785156 16.441406 -15.332031 18.140625 -12.9375 C 19.847656 -10.550781 22.28125 -9.359375 25.4375 -9.359375 C 28.519531 -9.359375 30.925781 -10.535156 32.65625 -12.890625 C 34.382812 -15.253906 35.25 -19.03125 35.25 -24.21875 C 35.25 -28.632812 34.382812 -32.054688 32.65625 -34.484375 C 30.925781 -36.921875 28.492188 -38.140625 25.359375 -38.140625 C 22.253906 -38.140625 19.847656 -36.929688 18.140625 -34.515625 C 16.441406 -32.097656 15.59375 -28.359375 15.59375 -23.296875 Z M 15.59375 -23.296875 "/></g></g><g transform="translate(432.020818, 113.999993)"><g><path d="M 16.5625 -47.546875 L 16.96875 -42.0625 C 20.363281 -46.300781 24.914062 -48.421875 30.625 -48.421875 C 35.664062 -48.421875 39.414062 -46.941406 41.875 -43.984375 C 44.34375 -41.023438 45.601562 -36.601562 45.65625 -30.71875 L 45.65625 0 L 32.953125 0 L 32.953125 -30.40625 C 32.953125 -33.101562 32.363281 -35.054688 31.1875 -36.265625 C 30.019531 -37.484375 28.078125 -38.09375 25.359375 -38.09375 C 21.785156 -38.09375 19.101562 -36.570312 17.3125 -33.53125 L 17.3125 0 L 4.609375 0 L 4.609375 -47.546875 Z M 16.5625 -47.546875 "/></g></g><g transform="translate(482.426088, 113.999993)"><g><path d="M 32.4375 0 C 31.84375 -1.144531 31.414062 -2.566406 31.15625 -4.265625 C 28.082031 -0.835938 24.082031 0.875 19.15625 0.875 C 14.5 0.875 10.640625 -0.46875 7.578125 -3.15625 C 4.515625 -5.851562 2.984375 -9.253906 2.984375 -13.359375 C 2.984375 -18.398438 4.847656 -22.265625 8.578125 -24.953125 C 12.316406 -27.648438 17.71875 -29.015625 24.78125 -29.046875 L 30.625 -29.046875 L 30.625 -31.765625 C 30.625 -33.960938 30.0625 -35.722656 28.9375 -37.046875 C 27.8125 -38.367188 26.03125 -39.03125 23.59375 -39.03125 C 21.457031 -39.03125 19.78125 -38.515625 18.5625 -37.484375 C 17.351562 -36.460938 16.75 -35.054688 16.75 -33.265625 L 4.046875 -33.265625 C 4.046875 -36.015625 4.894531 -38.5625 6.59375 -40.90625 C 8.289062 -43.25 10.691406 -45.085938 13.796875 -46.421875 C 16.898438 -47.753906 20.390625 -48.421875 24.265625 -48.421875 C 30.117188 -48.421875 34.765625 -46.945312 38.203125 -44 C 41.648438 -41.0625 43.375 -36.925781 43.375 -31.59375 L 43.375 -10.984375 C 43.40625 -6.472656 44.035156 -3.0625 45.265625 -0.75 L 45.265625 0 Z M 21.921875 -8.828125 C 23.796875 -8.828125 25.523438 -9.242188 27.109375 -10.078125 C 28.691406 -10.921875 29.863281 -12.046875 30.625 -13.453125 L 30.625 -21.625 L 25.890625 -21.625 C 19.523438 -21.625 16.140625 -19.425781 15.734375 -15.03125 L 15.6875 -14.28125 C 15.6875 -12.695312 16.242188 -11.390625 17.359375 -10.359375 C 18.472656 -9.335938 19.992188 -8.828125 21.921875 -8.828125 Z M 21.921875 -8.828125 "/></g></g><g transform="translate(530.678038, 113.999993)"><g><path d="M 18.28125 0 L 5.53125 0 L 5.53125 -67.5 L 18.28125 -67.5 Z M 18.28125 0 "/></g></g></g><g clip-path="url(#99bffb04fd)"><g clip-path="url(#b46edc12c8)"><path fill="#ff7723" d="M 0 0 L 125.535156 0 L 125.535156 168.199219 L 0 168.199219 Z M 0 0 " fill-opacity="1" fill-rule="nonzero"/></g></g><g clip-path="url(#63ff5ef297)"><path fill="#969696" d="M 86.195312 0 L 134.222656 0 L 134.222656 167.914062 L 86.195312 167.914062 Z M 86.195312 0 " fill-opacity="1" fill-rule="nonzero"/></g></svg>