<svg xmlns="http://www.w3.org/2000/svg" xmlns:xlink="http://www.w3.org/1999/xlink" width="944" zoomAndPan="magnify" viewBox="0 0 708 167.999997" height="224" preserveAspectRatio="xMidYMid meet" version="1.0"><defs><g/><clipPath id="701a505550"><path d="M 86.195312 0 L 708 0 L 708 168 L 86.195312 168 Z M 86.195312 0 " clip-rule="nonzero"/></clipPath><clipPath id="d67fc59473"><path d="M 124.445312 0 L 669.75 0 C 679.894531 0 689.625 4.03125 696.796875 11.203125 C 703.96875 18.375 708 28.105469 708 38.25 L 708 129.75 C 708 139.894531 703.96875 149.625 696.796875 156.796875 C 689.625 163.96875 679.894531 168 669.75 168 L 124.445312 168 C 114.300781 168 104.570312 163.96875 97.398438 156.796875 C 90.222656 149.625 86.195312 139.894531 86.195312 129.75 L 86.195312 38.25 C 86.195312 28.105469 90.222656 18.375 97.398438 11.203125 C 104.570312 4.03125 114.300781 0 124.445312 0 Z M 124.445312 0 " clip-rule="nonzero"/></clipPath><clipPath id="842418ff8a"><path d="M 0 0 L 125.535156 0 L 125.535156 168 L 0 168 Z M 0 0 " clip-rule="nonzero"/></clipPath><clipPath id="2c399a3781"><path d="M 38.25 0 L 87.285156 0 C 97.429688 0 107.160156 4.03125 114.332031 11.203125 C 121.507812 18.375 125.535156 28.105469 125.535156 38.25 L 125.535156 129.75 C 125.535156 139.894531 121.507812 149.625 114.332031 156.796875 C 107.160156 163.96875 97.429688 168 87.285156 168 L 38.25 168 C 28.105469 168 18.375 163.96875 11.203125 156.796875 C 4.03125 149.625 0 139.894531 0 129.75 L 0 38.25 C 0 28.105469 4.03125 18.375 11.203125 11.203125 C 18.375 4.03125 28.105469 0 38.25 0 Z M 38.25 0 " clip-rule="nonzero"/></clipPath><linearGradient x1="-0" gradientTransform="matrix(0.490376, 0, 0, 0.490376, 0.00000632143, -0.00006)" y1="171.297" x2="255.999982" gradientUnits="userSpaceOnUse" y2="171.297" id="c2e063dc23"><stop stop-opacity="1" stop-color="rgb(54.899597%, 32.199097%, 100%)" offset="0"/><stop stop-opacity="1" stop-color="rgb(54.684448%, 32.365417%, 99.760437%)" offset="0.00390625"/><stop stop-opacity="1" stop-color="rgb(54.470825%, 32.533264%, 99.520874%)" offset="0.0078125"/><stop stop-opacity="1" stop-color="rgb(54.255676%, 32.699585%, 99.281311%)" offset="0.0117188"/><stop stop-opacity="1" stop-color="rgb(54.042053%, 32.865906%, 99.043274%)" offset="0.015625"/><stop stop-opacity="1" stop-color="rgb(53.826904%, 33.032227%, 98.803711%)" offset="0.0195312"/><stop stop-opacity="1" stop-color="rgb(53.613281%, 33.200073%, 98.564148%)" offset="0.0234375"/><stop stop-opacity="1" stop-color="rgb(53.398132%, 33.366394%, 98.324585%)" offset="0.0273437"/><stop stop-opacity="1" stop-color="rgb(53.182983%, 33.534241%, 98.086548%)" offset="0.03125"/><stop stop-opacity="1" stop-color="rgb(52.967834%, 33.700562%, 97.846985%)" offset="0.0351562"/><stop stop-opacity="1" stop-color="rgb(52.754211%, 33.866882%, 97.608948%)" offset="0.0390625"/><stop stop-opacity="1" stop-color="rgb(52.539062%, 34.033203%, 97.369385%)" offset="0.0429688"/><stop stop-opacity="1" stop-color="rgb(52.325439%, 34.20105%, 97.129822%)" offset="0.046875"/><stop stop-opacity="1" stop-color="rgb(52.110291%, 34.367371%, 96.890259%)" offset="0.0507812"/><stop stop-opacity="1" stop-color="rgb(51.896667%, 34.533691%, 96.652222%)" offset="0.0546875"/><stop stop-opacity="1" stop-color="rgb(51.681519%, 34.700012%, 96.412659%)" offset="0.0585937"/><stop stop-opacity="1" stop-color="rgb(51.467896%, 34.867859%, 96.174622%)" offset="0.0625"/><stop stop-opacity="1" stop-color="rgb(51.252747%, 35.03418%, 95.935059%)" offset="0.0664062"/><stop stop-opacity="1" stop-color="rgb(51.039124%, 35.202026%, 95.695496%)" offset="0.0703125"/><stop stop-opacity="1" stop-color="rgb(50.823975%, 35.368347%, 95.455933%)" offset="0.0742188"/><stop stop-opacity="1" stop-color="rgb(50.610352%, 35.534668%, 95.217896%)" offset="0.078125"/><stop stop-opacity="1" stop-color="rgb(50.395203%, 35.700989%, 94.978333%)" offset="0.0820312"/><stop stop-opacity="1" stop-color="rgb(50.18158%, 35.868835%, 94.740295%)" offset="0.0859375"/><stop stop-opacity="1" stop-color="rgb(49.966431%, 36.035156%, 94.500732%)" offset="0.0898438"/><stop stop-opacity="1" stop-color="rgb(49.752808%, 36.203003%, 94.261169%)" offset="0.09375"/><stop stop-opacity="1" stop-color="rgb(49.537659%, 36.369324%, 94.021606%)" offset="0.0976562"/><stop stop-opacity="1" stop-color="rgb(49.324036%, 36.535645%, 93.783569%)" offset="0.101562"/><stop stop-opacity="1" stop-color="rgb(49.108887%, 36.701965%, 93.544006%)" offset="0.105469"/><stop stop-opacity="1" stop-color="rgb(48.895264%, 36.869812%, 93.305969%)" offset="0.109375"/><stop stop-opacity="1" stop-color="rgb(48.680115%, 37.036133%, 93.066406%)" offset="0.113281"/><stop stop-opacity="1" stop-color="rgb(48.464966%, 37.202454%, 92.826843%)" offset="0.117187"/><stop stop-opacity="1" stop-color="rgb(48.249817%, 37.368774%, 92.58728%)" offset="0.121094"/><stop stop-opacity="1" stop-color="rgb(48.036194%, 37.536621%, 92.349243%)" offset="0.125"/><stop stop-opacity="1" stop-color="rgb(47.821045%, 37.702942%, 92.10968%)" offset="0.128906"/><stop stop-opacity="1" stop-color="rgb(47.607422%, 37.870789%, 91.871643%)" offset="0.132812"/><stop stop-opacity="1" stop-color="rgb(47.392273%, 38.037109%, 91.63208%)" offset="0.136719"/><stop stop-opacity="1" stop-color="rgb(47.17865%, 38.20343%, 91.392517%)" offset="0.140625"/><stop stop-opacity="1" stop-color="rgb(46.963501%, 38.369751%, 91.152954%)" offset="0.144531"/><stop stop-opacity="1" stop-color="rgb(46.749878%, 38.537598%, 90.914917%)" offset="0.148438"/><stop stop-opacity="1" stop-color="rgb(46.534729%, 38.703918%, 90.675354%)" offset="0.152344"/><stop stop-opacity="1" stop-color="rgb(46.321106%, 38.871765%, 90.437317%)" offset="0.15625"/><stop stop-opacity="1" stop-color="rgb(46.105957%, 39.038086%, 90.197754%)" offset="0.160156"/><stop stop-opacity="1" stop-color="rgb(45.892334%, 39.204407%, 89.958191%)" offset="0.164062"/><stop stop-opacity="1" stop-color="rgb(45.677185%, 39.370728%, 89.718628%)" offset="0.167969"/><stop stop-opacity="1" stop-color="rgb(45.463562%, 39.538574%, 89.480591%)" offset="0.171875"/><stop stop-opacity="1" stop-color="rgb(45.248413%, 39.704895%, 89.241028%)" offset="0.175781"/><stop stop-opacity="1" stop-color="rgb(45.03479%, 39.871216%, 89.002991%)" offset="0.179688"/><stop stop-opacity="1" stop-color="rgb(44.819641%, 40.037537%, 88.763428%)" offset="0.183594"/><stop stop-opacity="1" stop-color="rgb(44.606018%, 40.205383%, 88.523865%)" offset="0.1875"/><stop stop-opacity="1" stop-color="rgb(44.390869%, 40.371704%, 88.284302%)" offset="0.191406"/><stop stop-opacity="1" stop-color="rgb(44.177246%, 40.539551%, 88.046265%)" offset="0.195312"/><stop stop-opacity="1" stop-color="rgb(43.962097%, 40.705872%, 87.806702%)" offset="0.199219"/><stop stop-opacity="1" stop-color="rgb(43.746948%, 40.872192%, 87.568665%)" offset="0.203125"/><stop stop-opacity="1" stop-color="rgb(43.531799%, 41.038513%, 87.329102%)" offset="0.207031"/><stop stop-opacity="1" stop-color="rgb(43.318176%, 41.20636%, 87.089539%)" offset="0.210937"/><stop stop-opacity="1" stop-color="rgb(43.103027%, 41.372681%, 86.849976%)" offset="0.214844"/><stop stop-opacity="1" stop-color="rgb(42.889404%, 41.540527%, 86.611938%)" offset="0.21875"/><stop stop-opacity="1" stop-color="rgb(42.674255%, 41.706848%, 86.372375%)" offset="0.222656"/><stop stop-opacity="1" stop-color="rgb(42.460632%, 41.873169%, 86.134338%)" offset="0.226562"/><stop stop-opacity="1" stop-color="rgb(42.245483%, 42.03949%, 85.894775%)" offset="0.230469"/><stop stop-opacity="1" stop-color="rgb(42.03186%, 42.207336%, 85.655212%)" offset="0.234375"/><stop stop-opacity="1" stop-color="rgb(41.816711%, 42.373657%, 85.415649%)" offset="0.238281"/><stop stop-opacity="1" stop-color="rgb(41.603088%, 42.539978%, 85.177612%)" offset="0.242188"/><stop stop-opacity="1" stop-color="rgb(41.387939%, 42.706299%, 84.938049%)" offset="0.246094"/><stop stop-opacity="1" stop-color="rgb(41.174316%, 42.874146%, 84.698486%)" offset="0.25"/><stop stop-opacity="1" stop-color="rgb(40.959167%, 43.040466%, 84.458923%)" offset="0.253906"/><stop stop-opacity="1" stop-color="rgb(40.745544%, 43.208313%, 84.220886%)" offset="0.257812"/><stop stop-opacity="1" stop-color="rgb(40.530396%, 43.374634%, 83.981323%)" offset="0.261719"/><stop stop-opacity="1" stop-color="rgb(40.316772%, 43.540955%, 83.743286%)" offset="0.265625"/><stop stop-opacity="1" stop-color="rgb(40.101624%, 43.707275%, 83.503723%)" offset="0.269531"/><stop stop-opacity="1" stop-color="rgb(39.888%, 43.875122%, 83.26416%)" offset="0.273438"/><stop stop-opacity="1" stop-color="rgb(39.672852%, 44.041443%, 83.024597%)" offset="0.277344"/><stop stop-opacity="1" stop-color="rgb(39.459229%, 44.20929%, 82.78656%)" offset="0.28125"/><stop stop-opacity="1" stop-color="rgb(39.24408%, 44.37561%, 82.546997%)" offset="0.285156"/><stop stop-opacity="1" stop-color="rgb(39.030457%, 44.541931%, 82.30896%)" offset="0.289062"/><stop stop-opacity="1" stop-color="rgb(38.815308%, 44.708252%, 82.069397%)" offset="0.292969"/><stop stop-opacity="1" stop-color="rgb(38.600159%, 44.876099%, 81.829834%)" offset="0.296875"/><stop stop-opacity="1" stop-color="rgb(38.38501%, 45.042419%, 81.590271%)" offset="0.300781"/><stop stop-opacity="1" stop-color="rgb(38.171387%, 45.20874%, 81.352234%)" offset="0.304688"/><stop stop-opacity="1" stop-color="rgb(37.956238%, 45.375061%, 81.112671%)" offset="0.308594"/><stop stop-opacity="1" stop-color="rgb(37.742615%, 45.542908%, 80.874634%)" offset="0.3125"/><stop stop-opacity="1" stop-color="rgb(37.527466%, 45.709229%, 80.635071%)" offset="0.316406"/><stop stop-opacity="1" stop-color="rgb(37.313843%, 45.877075%, 80.395508%)" offset="0.320312"/><stop stop-opacity="1" stop-color="rgb(37.098694%, 46.043396%, 80.155945%)" offset="0.324219"/><stop stop-opacity="1" stop-color="rgb(36.885071%, 46.209717%, 79.917908%)" offset="0.328125"/><stop stop-opacity="1" stop-color="rgb(36.669922%, 46.376038%, 79.678345%)" offset="0.332031"/><stop stop-opacity="1" stop-color="rgb(36.456299%, 46.543884%, 79.440308%)" offset="0.335938"/><stop stop-opacity="1" stop-color="rgb(36.24115%, 46.710205%, 79.200745%)" offset="0.339844"/><stop stop-opacity="1" stop-color="rgb(36.027527%, 46.878052%, 78.961182%)" offset="0.34375"/><stop stop-opacity="1" stop-color="rgb(35.812378%, 47.044373%, 78.721619%)" offset="0.347656"/><stop stop-opacity="1" stop-color="rgb(35.598755%, 47.210693%, 78.483582%)" offset="0.351562"/><stop stop-opacity="1" stop-color="rgb(35.383606%, 47.377014%, 78.244019%)" offset="0.355469"/><stop stop-opacity="1" stop-color="rgb(35.169983%, 47.544861%, 78.005981%)" offset="0.359375"/><stop stop-opacity="1" stop-color="rgb(34.954834%, 47.711182%, 77.766418%)" offset="0.363281"/><stop stop-opacity="1" stop-color="rgb(34.741211%, 47.877502%, 77.526855%)" offset="0.367188"/><stop stop-opacity="1" stop-color="rgb(34.526062%, 48.043823%, 77.287292%)" offset="0.371094"/><stop stop-opacity="1" stop-color="rgb(34.312439%, 48.21167%, 77.049255%)" offset="0.375"/><stop stop-opacity="1" stop-color="rgb(34.09729%, 48.377991%, 76.809692%)" offset="0.378906"/><stop stop-opacity="1" stop-color="rgb(33.882141%, 48.545837%, 76.571655%)" offset="0.382812"/><stop stop-opacity="1" stop-color="rgb(33.666992%, 48.712158%, 76.332092%)" offset="0.386719"/><stop stop-opacity="1" stop-color="rgb(33.453369%, 48.878479%, 76.092529%)" offset="0.390625"/><stop stop-opacity="1" stop-color="rgb(33.23822%, 49.0448%, 75.852966%)" offset="0.394531"/><stop stop-opacity="1" stop-color="rgb(33.024597%, 49.212646%, 75.614929%)" offset="0.398438"/><stop stop-opacity="1" stop-color="rgb(32.809448%, 49.378967%, 75.375366%)" offset="0.402344"/><stop stop-opacity="1" stop-color="rgb(32.595825%, 49.546814%, 75.137329%)" offset="0.40625"/><stop stop-opacity="1" stop-color="rgb(32.380676%, 49.713135%, 74.897766%)" offset="0.410156"/><stop stop-opacity="1" stop-color="rgb(32.167053%, 49.879456%, 74.658203%)" offset="0.414062"/><stop stop-opacity="1" stop-color="rgb(31.951904%, 50.045776%, 74.41864%)" offset="0.417969"/><stop stop-opacity="1" stop-color="rgb(31.738281%, 50.213623%, 74.180603%)" offset="0.421875"/><stop stop-opacity="1" stop-color="rgb(31.523132%, 50.379944%, 73.94104%)" offset="0.425781"/><stop stop-opacity="1" stop-color="rgb(31.309509%, 50.546265%, 73.703003%)" offset="0.429688"/><stop stop-opacity="1" stop-color="rgb(31.09436%, 50.712585%, 73.46344%)" offset="0.433594"/><stop stop-opacity="1" stop-color="rgb(30.880737%, 50.880432%, 73.223877%)" offset="0.4375"/><stop stop-opacity="1" stop-color="rgb(30.665588%, 51.046753%, 72.984314%)" offset="0.441406"/><stop stop-opacity="1" stop-color="rgb(30.451965%, 51.2146%, 72.746277%)" offset="0.445312"/><stop stop-opacity="1" stop-color="rgb(30.236816%, 51.38092%, 72.506714%)" offset="0.449219"/><stop stop-opacity="1" stop-color="rgb(30.023193%, 51.547241%, 72.268677%)" offset="0.453125"/><stop stop-opacity="1" stop-color="rgb(29.808044%, 51.713562%, 72.029114%)" offset="0.457031"/><stop stop-opacity="1" stop-color="rgb(29.594421%, 51.881409%, 71.789551%)" offset="0.460938"/><stop stop-opacity="1" stop-color="rgb(29.379272%, 52.047729%, 71.549988%)" offset="0.464844"/><stop stop-opacity="1" stop-color="rgb(29.164124%, 52.215576%, 71.311951%)" offset="0.46875"/><stop stop-opacity="1" stop-color="rgb(28.948975%, 52.381897%, 71.072388%)" offset="0.472656"/><stop stop-opacity="1" stop-color="rgb(28.735352%, 52.548218%, 70.834351%)" offset="0.476562"/><stop stop-opacity="1" stop-color="rgb(28.520203%, 52.714539%, 70.594788%)" offset="0.480469"/><stop stop-opacity="1" stop-color="rgb(28.30658%, 52.882385%, 70.355225%)" offset="0.484375"/><stop stop-opacity="1" stop-color="rgb(28.091431%, 53.048706%, 70.115662%)" offset="0.488281"/><stop stop-opacity="1" stop-color="rgb(27.877808%, 53.215027%, 69.877625%)" offset="0.492188"/><stop stop-opacity="1" stop-color="rgb(27.662659%, 53.381348%, 69.638062%)" offset="0.496094"/><stop stop-opacity="1" stop-color="rgb(27.449036%, 53.549194%, 69.398499%)" offset="0.5"/><stop stop-opacity="1" stop-color="rgb(27.233887%, 53.715515%, 69.158936%)" offset="0.503906"/><stop stop-opacity="1" stop-color="rgb(27.020264%, 53.883362%, 68.920898%)" offset="0.507812"/><stop stop-opacity="1" stop-color="rgb(26.805115%, 54.049683%, 68.681335%)" offset="0.511719"/><stop stop-opacity="1" stop-color="rgb(26.591492%, 54.216003%, 68.443298%)" offset="0.515625"/><stop stop-opacity="1" stop-color="rgb(26.376343%, 54.382324%, 68.203735%)" offset="0.519531"/><stop stop-opacity="1" stop-color="rgb(26.16272%, 54.550171%, 67.964172%)" offset="0.523438"/><stop stop-opacity="1" stop-color="rgb(25.947571%, 54.716492%, 67.724609%)" offset="0.527344"/><stop stop-opacity="1" stop-color="rgb(25.733948%, 54.884338%, 67.486572%)" offset="0.53125"/><stop stop-opacity="1" stop-color="rgb(25.518799%, 55.050659%, 67.247009%)" offset="0.535156"/><stop stop-opacity="1" stop-color="rgb(25.305176%, 55.21698%, 67.008972%)" offset="0.539063"/><stop stop-opacity="1" stop-color="rgb(25.090027%, 55.383301%, 66.769409%)" offset="0.542969"/><stop stop-opacity="1" stop-color="rgb(24.876404%, 55.551147%, 66.529846%)" offset="0.546875"/><stop stop-opacity="1" stop-color="rgb(24.661255%, 55.717468%, 66.290283%)" offset="0.550781"/><stop stop-opacity="1" stop-color="rgb(24.447632%, 55.883789%, 66.052246%)" offset="0.554688"/><stop stop-opacity="1" stop-color="rgb(24.232483%, 56.05011%, 65.812683%)" offset="0.558594"/><stop stop-opacity="1" stop-color="rgb(24.017334%, 56.217957%, 65.574646%)" offset="0.5625"/><stop stop-opacity="1" stop-color="rgb(23.802185%, 56.384277%, 65.335083%)" offset="0.566406"/><stop stop-opacity="1" stop-color="rgb(23.588562%, 56.552124%, 65.09552%)" offset="0.570312"/><stop stop-opacity="1" stop-color="rgb(23.373413%, 56.718445%, 64.855957%)" offset="0.574219"/><stop stop-opacity="1" stop-color="rgb(23.15979%, 56.884766%, 64.61792%)" offset="0.578125"/><stop stop-opacity="1" stop-color="rgb(22.944641%, 57.051086%, 64.378357%)" offset="0.582031"/><stop stop-opacity="1" stop-color="rgb(22.731018%, 57.218933%, 64.14032%)" offset="0.585937"/><stop stop-opacity="1" stop-color="rgb(22.515869%, 57.385254%, 63.900757%)" offset="0.589844"/><stop stop-opacity="1" stop-color="rgb(22.302246%, 57.553101%, 63.661194%)" offset="0.59375"/><stop stop-opacity="1" stop-color="rgb(22.087097%, 57.719421%, 63.421631%)" offset="0.597656"/><stop stop-opacity="1" stop-color="rgb(21.873474%, 57.885742%, 63.183594%)" offset="0.601563"/><stop stop-opacity="1" stop-color="rgb(21.658325%, 58.052063%, 62.944031%)" offset="0.605469"/><stop stop-opacity="1" stop-color="rgb(21.444702%, 58.21991%, 62.705994%)" offset="0.609375"/><stop stop-opacity="1" stop-color="rgb(21.229553%, 58.38623%, 62.466431%)" offset="0.613281"/><stop stop-opacity="1" stop-color="rgb(21.01593%, 58.552551%, 62.226868%)" offset="0.617188"/><stop stop-opacity="1" stop-color="rgb(20.800781%, 58.718872%, 61.987305%)" offset="0.621094"/><stop stop-opacity="1" stop-color="rgb(20.587158%, 58.886719%, 61.749268%)" offset="0.625"/><stop stop-opacity="1" stop-color="rgb(20.372009%, 59.05304%, 61.509705%)" offset="0.628906"/><stop stop-opacity="1" stop-color="rgb(20.158386%, 59.220886%, 61.271667%)" offset="0.632812"/><stop stop-opacity="1" stop-color="rgb(19.943237%, 59.387207%, 61.032104%)" offset="0.636719"/><stop stop-opacity="1" stop-color="rgb(19.729614%, 59.553528%, 60.792542%)" offset="0.640625"/><stop stop-opacity="1" stop-color="rgb(19.514465%, 59.719849%, 60.552979%)" offset="0.644531"/><stop stop-opacity="1" stop-color="rgb(19.299316%, 59.887695%, 60.314941%)" offset="0.648437"/><stop stop-opacity="1" stop-color="rgb(19.084167%, 60.054016%, 60.075378%)" offset="0.652344"/><stop stop-opacity="1" stop-color="rgb(18.870544%, 60.221863%, 59.837341%)" offset="0.65625"/><stop stop-opacity="1" stop-color="rgb(18.655396%, 60.388184%, 59.597778%)" offset="0.660156"/><stop stop-opacity="1" stop-color="rgb(18.441772%, 60.554504%, 59.358215%)" offset="0.664063"/><stop stop-opacity="1" stop-color="rgb(18.226624%, 60.720825%, 59.118652%)" offset="0.667969"/><stop stop-opacity="1" stop-color="rgb(18.013%, 60.888672%, 58.880615%)" offset="0.671875"/><stop stop-opacity="1" stop-color="rgb(17.797852%, 61.054993%, 58.641052%)" offset="0.675781"/><stop stop-opacity="1" stop-color="rgb(17.584229%, 61.221313%, 58.403015%)" offset="0.679688"/><stop stop-opacity="1" stop-color="rgb(17.36908%, 61.387634%, 58.163452%)" offset="0.683594"/><stop stop-opacity="1" stop-color="rgb(17.155457%, 61.555481%, 57.923889%)" offset="0.6875"/><stop stop-opacity="1" stop-color="rgb(16.940308%, 61.721802%, 57.684326%)" offset="0.691406"/><stop stop-opacity="1" stop-color="rgb(16.726685%, 61.889648%, 57.446289%)" offset="0.695312"/><stop stop-opacity="1" stop-color="rgb(16.511536%, 62.055969%, 57.206726%)" offset="0.699219"/><stop stop-opacity="1" stop-color="rgb(16.297913%, 62.22229%, 56.968689%)" offset="0.703125"/><stop stop-opacity="1" stop-color="rgb(16.082764%, 62.388611%, 56.729126%)" offset="0.707031"/><stop stop-opacity="1" stop-color="rgb(15.869141%, 62.556458%, 56.489563%)" offset="0.710937"/><stop stop-opacity="1" stop-color="rgb(15.653992%, 62.722778%, 56.25%)" offset="0.714844"/><stop stop-opacity="1" stop-color="rgb(15.440369%, 62.889099%, 56.011963%)" offset="0.71875"/><stop stop-opacity="1" stop-color="rgb(15.22522%, 63.05542%, 55.7724%)" offset="0.722656"/><stop stop-opacity="1" stop-color="rgb(15.011597%, 63.223267%, 55.534363%)" offset="0.726563"/><stop stop-opacity="1" stop-color="rgb(14.796448%, 63.389587%, 55.2948%)" offset="0.730469"/><stop stop-opacity="1" stop-color="rgb(14.581299%, 63.557434%, 55.055237%)" offset="0.734375"/><stop stop-opacity="1" stop-color="rgb(14.36615%, 63.723755%, 54.815674%)" offset="0.738281"/><stop stop-opacity="1" stop-color="rgb(14.152527%, 63.890076%, 54.577637%)" offset="0.742188"/><stop stop-opacity="1" stop-color="rgb(13.937378%, 64.056396%, 54.338074%)" offset="0.746094"/><stop stop-opacity="1" stop-color="rgb(13.723755%, 64.224243%, 54.098511%)" offset="0.75"/><stop stop-opacity="1" stop-color="rgb(13.508606%, 64.390564%, 53.858948%)" offset="0.753906"/><stop stop-opacity="1" stop-color="rgb(13.294983%, 64.558411%, 53.620911%)" offset="0.757812"/><stop stop-opacity="1" stop-color="rgb(13.079834%, 64.724731%, 53.381348%)" offset="0.761719"/><stop stop-opacity="1" stop-color="rgb(12.866211%, 64.891052%, 53.143311%)" offset="0.765625"/><stop stop-opacity="1" stop-color="rgb(12.651062%, 65.057373%, 52.903748%)" offset="0.769531"/><stop stop-opacity="1" stop-color="rgb(12.437439%, 65.22522%, 52.664185%)" offset="0.773437"/><stop stop-opacity="1" stop-color="rgb(12.22229%, 65.391541%, 52.424622%)" offset="0.777344"/><stop stop-opacity="1" stop-color="rgb(12.008667%, 65.557861%, 52.186584%)" offset="0.78125"/><stop stop-opacity="1" stop-color="rgb(11.793518%, 65.724182%, 51.947021%)" offset="0.785156"/><stop stop-opacity="1" stop-color="rgb(11.579895%, 65.892029%, 51.708984%)" offset="0.789062"/><stop stop-opacity="1" stop-color="rgb(11.364746%, 66.05835%, 51.469421%)" offset="0.792969"/><stop stop-opacity="1" stop-color="rgb(11.151123%, 66.226196%, 51.229858%)" offset="0.796875"/><stop stop-opacity="1" stop-color="rgb(10.935974%, 66.392517%, 50.990295%)" offset="0.800781"/><stop stop-opacity="1" stop-color="rgb(10.722351%, 66.558838%, 50.752258%)" offset="0.804688"/><stop stop-opacity="1" stop-color="rgb(10.507202%, 66.725159%, 50.512695%)" offset="0.808594"/><stop stop-opacity="1" stop-color="rgb(10.293579%, 66.893005%, 50.274658%)" offset="0.8125"/><stop stop-opacity="1" stop-color="rgb(10.07843%, 67.059326%, 50.035095%)" offset="0.816406"/><stop stop-opacity="1" stop-color="rgb(9.864807%, 67.227173%, 49.795532%)" offset="0.820312"/><stop stop-opacity="1" stop-color="rgb(9.649658%, 67.393494%, 49.555969%)" offset="0.824219"/><stop stop-opacity="1" stop-color="rgb(9.434509%, 67.559814%, 49.317932%)" offset="0.828125"/><stop stop-opacity="1" stop-color="rgb(9.21936%, 67.726135%, 49.078369%)" offset="0.832031"/><stop stop-opacity="1" stop-color="rgb(9.005737%, 67.893982%, 48.840332%)" offset="0.835937"/><stop stop-opacity="1" stop-color="rgb(8.790588%, 68.060303%, 48.600769%)" offset="0.839844"/><stop stop-opacity="1" stop-color="rgb(8.576965%, 68.226624%, 48.361206%)" offset="0.84375"/><stop stop-opacity="1" stop-color="rgb(8.361816%, 68.392944%, 48.121643%)" offset="0.847656"/><stop stop-opacity="1" stop-color="rgb(8.148193%, 68.560791%, 47.883606%)" offset="0.851562"/><stop stop-opacity="1" stop-color="rgb(7.933044%, 68.727112%, 47.644043%)" offset="0.855469"/><stop stop-opacity="1" stop-color="rgb(7.719421%, 68.894958%, 47.406006%)" offset="0.859375"/><stop stop-opacity="1" stop-color="rgb(7.504272%, 69.061279%, 47.166443%)" offset="0.863281"/><stop stop-opacity="1" stop-color="rgb(7.290649%, 69.2276%, 46.92688%)" offset="0.867188"/><stop stop-opacity="1" stop-color="rgb(7.0755%, 69.393921%, 46.687317%)" offset="0.871094"/><stop stop-opacity="1" stop-color="rgb(6.861877%, 69.561768%, 46.44928%)" offset="0.875"/><stop stop-opacity="1" stop-color="rgb(6.646729%, 69.728088%, 46.209717%)" offset="0.878906"/><stop stop-opacity="1" stop-color="rgb(6.433105%, 69.895935%, 45.97168%)" offset="0.882812"/><stop stop-opacity="1" stop-color="rgb(6.217957%, 70.062256%, 45.732117%)" offset="0.886719"/><stop stop-opacity="1" stop-color="rgb(6.004333%, 70.228577%, 45.492554%)" offset="0.890625"/><stop stop-opacity="1" stop-color="rgb(5.789185%, 70.394897%, 45.252991%)" offset="0.894531"/><stop stop-opacity="1" stop-color="rgb(5.575562%, 70.562744%, 45.014954%)" offset="0.898437"/><stop stop-opacity="1" stop-color="rgb(5.360413%, 70.729065%, 44.775391%)" offset="0.902344"/><stop stop-opacity="1" stop-color="rgb(5.14679%, 70.895386%, 44.537354%)" offset="0.90625"/><stop stop-opacity="1" stop-color="rgb(4.931641%, 71.061707%, 44.297791%)" offset="0.910156"/><stop stop-opacity="1" stop-color="rgb(4.716492%, 71.229553%, 44.058228%)" offset="0.914062"/><stop stop-opacity="1" stop-color="rgb(4.501343%, 71.395874%, 43.818665%)" offset="0.917969"/><stop stop-opacity="1" stop-color="rgb(4.28772%, 71.563721%, 43.580627%)" offset="0.921875"/><stop stop-opacity="1" stop-color="rgb(4.072571%, 71.730042%, 43.341064%)" offset="0.925781"/><stop stop-opacity="1" stop-color="rgb(3.858948%, 71.896362%, 43.103027%)" offset="0.929687"/><stop stop-opacity="1" stop-color="rgb(3.643799%, 72.062683%, 42.863464%)" offset="0.933594"/><stop stop-opacity="1" stop-color="rgb(3.430176%, 72.23053%, 42.623901%)" offset="0.9375"/><stop stop-opacity="1" stop-color="rgb(3.215027%, 72.396851%, 42.384338%)" offset="0.941406"/><stop stop-opacity="1" stop-color="rgb(3.001404%, 72.564697%, 42.146301%)" offset="0.945312"/><stop stop-opacity="1" stop-color="rgb(2.786255%, 72.731018%, 41.906738%)" offset="0.949219"/><stop stop-opacity="1" stop-color="rgb(2.572632%, 72.897339%, 41.668701%)" offset="0.953125"/><stop stop-opacity="1" stop-color="rgb(2.357483%, 73.06366%, 41.429138%)" offset="0.957031"/><stop stop-opacity="1" stop-color="rgb(2.14386%, 73.231506%, 41.189575%)" offset="0.960938"/><stop stop-opacity="1" stop-color="rgb(1.928711%, 73.397827%, 40.950012%)" offset="0.964844"/><stop stop-opacity="1" stop-color="rgb(1.715088%, 73.564148%, 40.711975%)" offset="0.96875"/><stop stop-opacity="1" stop-color="rgb(1.499939%, 73.730469%, 40.472412%)" offset="0.972656"/><stop stop-opacity="1" stop-color="rgb(1.286316%, 73.898315%, 40.234375%)" offset="0.976562"/><stop stop-opacity="1" stop-color="rgb(1.071167%, 74.064636%, 39.994812%)" offset="0.980469"/><stop stop-opacity="1" stop-color="rgb(0.857544%, 74.232483%, 39.755249%)" offset="0.984375"/><stop stop-opacity="1" stop-color="rgb(0.642395%, 74.398804%, 39.515686%)" offset="0.988281"/><stop stop-opacity="1" stop-color="rgb(0.428772%, 74.565125%, 39.277649%)" offset="0.992187"/><stop stop-opacity="1" stop-color="rgb(0.213623%, 74.731445%, 39.038086%)" offset="0.996094"/><stop stop-opacity="1" stop-color="rgb(0%, 74.899292%, 38.798523%)" offset="1"/></linearGradient><clipPath id="738aef6607"><path d="M 86.195312 0 L 134.222656 0 L 134.222656 168 L 86.195312 168 Z M 86.195312 0 " clip-rule="nonzero"/></clipPath></defs><g fill="#ffffff" fill-opacity="1"><g transform="translate(86.205542, 102.105035)"><g><path d="M 32.328125 -2.578125 C 32.328125 -2.140625 32.300781 -1.753906 32.25 -1.421875 C 32.207031 -1.097656 32.125 -0.828125 32 -0.609375 C 31.882812 -0.398438 31.75 -0.242188 31.59375 -0.140625 C 31.4375 -0.046875 31.257812 0 31.0625 0 L 8.546875 0 C 7.992188 0 7.46875 -0.1875 6.96875 -0.5625 C 6.476562 -0.9375 6.234375 -1.59375 6.234375 -2.53125 L 6.234375 -44.359375 C 6.234375 -45.304688 6.476562 -45.96875 6.96875 -46.34375 C 7.46875 -46.71875 7.992188 -46.90625 8.546875 -46.90625 L 30.8125 -46.90625 C 31 -46.90625 31.171875 -46.851562 31.328125 -46.75 C 31.492188 -46.65625 31.625 -46.5 31.71875 -46.28125 C 31.8125 -46.070312 31.890625 -45.800781 31.953125 -45.46875 C 32.015625 -45.144531 32.046875 -44.742188 32.046875 -44.265625 C 32.046875 -43.828125 32.015625 -43.441406 31.953125 -43.109375 C 31.890625 -42.785156 31.8125 -42.519531 31.71875 -42.3125 C 31.625 -42.113281 31.492188 -41.960938 31.328125 -41.859375 C 31.171875 -41.765625 31 -41.71875 30.8125 -41.71875 L 12.46875 -41.71875 L 12.46875 -27 L 28.203125 -27 C 28.390625 -27 28.5625 -26.941406 28.71875 -26.828125 C 28.882812 -26.722656 29.019531 -26.570312 29.125 -26.375 C 29.226562 -26.1875 29.304688 -25.921875 29.359375 -25.578125 C 29.410156 -25.242188 29.4375 -24.847656 29.4375 -24.390625 C 29.4375 -23.953125 29.410156 -23.578125 29.359375 -23.265625 C 29.304688 -22.953125 29.226562 -22.695312 29.125 -22.5 C 29.019531 -22.3125 28.882812 -22.175781 28.71875 -22.09375 C 28.5625 -22.007812 28.390625 -21.96875 28.203125 -21.96875 L 12.46875 -21.96875 L 12.46875 -5.1875 L 31.0625 -5.1875 C 31.257812 -5.1875 31.4375 -5.132812 31.59375 -5.03125 C 31.75 -4.9375 31.882812 -4.785156 32 -4.578125 C 32.125 -4.378906 32.207031 -4.113281 32.25 -3.78125 C 32.300781 -3.457031 32.328125 -3.054688 32.328125 -2.578125 Z M 32.328125 -2.578125 "/></g></g></g><g fill="#ffffff" fill-opacity="1"><g transform="translate(122.452326, 102.105035)"><g><path d="M 37.546875 -6.640625 C 37.546875 -6.242188 37.535156 -5.898438 37.515625 -5.609375 C 37.492188 -5.328125 37.453125 -5.078125 37.390625 -4.859375 C 37.328125 -4.640625 37.25 -4.445312 37.15625 -4.28125 C 37.0625 -4.113281 36.890625 -3.90625 36.640625 -3.65625 C 36.398438 -3.414062 35.894531 -3.046875 35.125 -2.546875 C 34.351562 -2.054688 33.390625 -1.578125 32.234375 -1.109375 C 31.085938 -0.640625 29.769531 -0.242188 28.28125 0.078125 C 26.800781 0.410156 25.179688 0.578125 23.421875 0.578125 C 20.367188 0.578125 17.613281 0.0703125 15.15625 -0.9375 C 12.707031 -1.957031 10.617188 -3.457031 8.890625 -5.4375 C 7.171875 -7.414062 5.84375 -9.859375 4.90625 -12.765625 C 3.976562 -15.679688 3.515625 -19.035156 3.515625 -22.828125 C 3.515625 -26.722656 4.015625 -30.191406 5.015625 -33.234375 C 6.023438 -36.285156 7.4375 -38.867188 9.25 -40.984375 C 11.0625 -43.097656 13.226562 -44.707031 15.75 -45.8125 C 18.269531 -46.925781 21.066406 -47.484375 24.140625 -47.484375 C 25.492188 -47.484375 26.8125 -47.351562 28.09375 -47.09375 C 29.375 -46.84375 30.554688 -46.523438 31.640625 -46.140625 C 32.734375 -45.753906 33.703125 -45.304688 34.546875 -44.796875 C 35.390625 -44.296875 35.972656 -43.878906 36.296875 -43.546875 C 36.628906 -43.222656 36.84375 -42.972656 36.9375 -42.796875 C 37.03125 -42.628906 37.109375 -42.429688 37.171875 -42.203125 C 37.234375 -41.972656 37.28125 -41.703125 37.3125 -41.390625 C 37.351562 -41.078125 37.375 -40.703125 37.375 -40.265625 C 37.375 -39.785156 37.347656 -39.375 37.296875 -39.03125 C 37.242188 -38.695312 37.171875 -38.414062 37.078125 -38.1875 C 36.984375 -37.957031 36.867188 -37.785156 36.734375 -37.671875 C 36.597656 -37.566406 36.4375 -37.515625 36.25 -37.515625 C 35.90625 -37.515625 35.429688 -37.75 34.828125 -38.21875 C 34.222656 -38.6875 33.441406 -39.207031 32.484375 -39.78125 C 31.535156 -40.351562 30.378906 -40.875 29.015625 -41.34375 C 27.648438 -41.8125 26.015625 -42.046875 24.109375 -42.046875 C 22.023438 -42.046875 20.128906 -41.628906 18.421875 -40.796875 C 16.722656 -39.960938 15.269531 -38.734375 14.0625 -37.109375 C 12.851562 -35.492188 11.914062 -33.519531 11.25 -31.1875 C 10.59375 -28.851562 10.265625 -26.191406 10.265625 -23.203125 C 10.265625 -20.222656 10.582031 -17.59375 11.21875 -15.3125 C 11.851562 -13.03125 12.769531 -11.117188 13.96875 -9.578125 C 15.164062 -8.046875 16.632812 -6.882812 18.375 -6.09375 C 20.113281 -5.3125 22.082031 -4.921875 24.28125 -4.921875 C 26.144531 -4.921875 27.769531 -5.148438 29.15625 -5.609375 C 30.550781 -6.078125 31.738281 -6.59375 32.71875 -7.15625 C 33.695312 -7.726562 34.5 -8.242188 35.125 -8.703125 C 35.75 -9.160156 36.242188 -9.390625 36.609375 -9.390625 C 36.773438 -9.390625 36.914062 -9.351562 37.03125 -9.28125 C 37.15625 -9.207031 37.253906 -9.066406 37.328125 -8.859375 C 37.398438 -8.648438 37.453125 -8.363281 37.484375 -8 C 37.523438 -7.644531 37.546875 -7.191406 37.546875 -6.640625 Z M 37.546875 -6.640625 "/></g></g></g><g fill="#ffffff" fill-opacity="1"><g transform="translate(162.033814, 102.105035)"><g><path d="M 57.234375 -0.9375 C 57.234375 -0.75 57.179688 -0.582031 57.078125 -0.4375 C 56.984375 -0.289062 56.816406 -0.175781 56.578125 -0.09375 C 56.335938 -0.0078125 56.03125 0.0625 55.65625 0.125 C 55.28125 0.1875 54.789062 0.21875 54.1875 0.21875 C 53.632812 0.21875 53.15625 0.1875 52.75 0.125 C 52.351562 0.0625 52.039062 -0.0078125 51.8125 -0.09375 C 51.582031 -0.175781 51.421875 -0.289062 51.328125 -0.4375 C 51.234375 -0.582031 51.1875 -0.75 51.1875 -0.9375 L 51.1875 -41.796875 L 51.109375 -41.796875 L 34.40625 -0.765625 C 34.332031 -0.585938 34.226562 -0.4375 34.09375 -0.3125 C 33.957031 -0.195312 33.757812 -0.0976562 33.5 -0.015625 C 33.25 0.0664062 32.945312 0.125 32.59375 0.15625 C 32.25 0.195312 31.835938 0.21875 31.359375 0.21875 C 30.847656 0.21875 30.410156 0.191406 30.046875 0.140625 C 29.679688 0.0976562 29.378906 0.0351562 29.140625 -0.046875 C 28.898438 -0.140625 28.710938 -0.242188 28.578125 -0.359375 C 28.441406 -0.484375 28.351562 -0.617188 28.3125 -0.765625 L 12.328125 -41.796875 L 12.28125 -41.796875 L 12.28125 -0.9375 C 12.28125 -0.75 12.234375 -0.582031 12.140625 -0.4375 C 12.046875 -0.289062 11.875 -0.175781 11.625 -0.09375 C 11.382812 -0.0078125 11.070312 0.0625 10.6875 0.125 C 10.300781 0.1875 9.804688 0.21875 9.203125 0.21875 C 8.628906 0.21875 8.144531 0.1875 7.75 0.125 C 7.363281 0.0625 7.054688 -0.0078125 6.828125 -0.09375 C 6.597656 -0.175781 6.441406 -0.289062 6.359375 -0.4375 C 6.273438 -0.582031 6.234375 -0.75 6.234375 -0.9375 L 6.234375 -44.078125 C 6.234375 -45.085938 6.5 -45.8125 7.03125 -46.25 C 7.5625 -46.6875 8.15625 -46.90625 8.8125 -46.90625 L 12.578125 -46.90625 C 13.347656 -46.90625 14.023438 -46.832031 14.609375 -46.6875 C 15.191406 -46.539062 15.695312 -46.3125 16.125 -46 C 16.5625 -45.6875 16.925781 -45.285156 17.21875 -44.796875 C 17.507812 -44.316406 17.765625 -43.75 17.984375 -43.09375 L 31.578125 -9.140625 L 31.75 -9.140625 L 45.890625 -42.984375 C 46.148438 -43.710938 46.4375 -44.328125 46.75 -44.828125 C 47.070312 -45.335938 47.421875 -45.742188 47.796875 -46.046875 C 48.171875 -46.347656 48.585938 -46.566406 49.046875 -46.703125 C 49.503906 -46.835938 50.035156 -46.90625 50.640625 -46.90625 L 54.59375 -46.90625 C 54.945312 -46.90625 55.285156 -46.847656 55.609375 -46.734375 C 55.941406 -46.628906 56.222656 -46.460938 56.453125 -46.234375 C 56.679688 -46.003906 56.867188 -45.710938 57.015625 -45.359375 C 57.160156 -45.015625 57.234375 -44.585938 57.234375 -44.078125 Z M 57.234375 -0.9375 "/></g></g></g><g fill="#ffffff" fill-opacity="1"><g transform="translate(225.501933, 102.105035)"><g><path d="M 33.5 -2.6875 C 33.5 -2.25 33.46875 -1.859375 33.40625 -1.515625 C 33.34375 -1.179688 33.253906 -0.898438 33.140625 -0.671875 C 33.035156 -0.441406 32.890625 -0.269531 32.703125 -0.15625 C 32.523438 -0.0507812 32.328125 0 32.109375 0 L 6.203125 0 C 5.859375 0 5.554688 -0.0390625 5.296875 -0.125 C 5.046875 -0.207031 4.832031 -0.34375 4.65625 -0.53125 C 4.476562 -0.726562 4.34375 -1.007812 4.25 -1.375 C 4.164062 -1.738281 4.125 -2.1875 4.125 -2.71875 C 4.125 -3.195312 4.140625 -3.617188 4.171875 -3.984375 C 4.210938 -4.347656 4.296875 -4.664062 4.421875 -4.9375 C 4.546875 -5.21875 4.695312 -5.5 4.875 -5.78125 C 5.050781 -6.0625 5.285156 -6.359375 5.578125 -6.671875 L 14.6875 -16.3125 C 16.78125 -18.53125 18.460938 -20.519531 19.734375 -22.28125 C 21.003906 -24.050781 21.984375 -25.660156 22.671875 -27.109375 C 23.359375 -28.554688 23.8125 -29.875 24.03125 -31.0625 C 24.25 -32.25 24.359375 -33.363281 24.359375 -34.40625 C 24.359375 -35.4375 24.1875 -36.414062 23.84375 -37.34375 C 23.507812 -38.28125 23.019531 -39.097656 22.375 -39.796875 C 21.738281 -40.492188 20.9375 -41.046875 19.96875 -41.453125 C 19 -41.867188 17.890625 -42.078125 16.640625 -42.078125 C 15.160156 -42.078125 13.832031 -41.867188 12.65625 -41.453125 C 11.488281 -41.046875 10.460938 -40.601562 9.578125 -40.125 C 8.703125 -39.644531 7.96875 -39.195312 7.375 -38.78125 C 6.78125 -38.375 6.335938 -38.171875 6.046875 -38.171875 C 5.878906 -38.171875 5.726562 -38.21875 5.59375 -38.3125 C 5.46875 -38.40625 5.359375 -38.5625 5.265625 -38.78125 C 5.179688 -39 5.113281 -39.289062 5.0625 -39.65625 C 5.019531 -40.019531 5 -40.453125 5 -40.953125 C 5 -41.316406 5.007812 -41.628906 5.03125 -41.890625 C 5.0625 -42.160156 5.101562 -42.390625 5.15625 -42.578125 C 5.21875 -42.773438 5.296875 -42.957031 5.390625 -43.125 C 5.492188 -43.300781 5.691406 -43.515625 5.984375 -43.765625 C 6.273438 -44.023438 6.773438 -44.367188 7.484375 -44.796875 C 8.191406 -45.234375 9.082031 -45.660156 10.15625 -46.078125 C 11.238281 -46.503906 12.425781 -46.863281 13.71875 -47.15625 C 15.007812 -47.445312 16.367188 -47.59375 17.796875 -47.59375 C 20.066406 -47.59375 22.050781 -47.269531 23.75 -46.625 C 25.457031 -45.988281 26.875 -45.113281 28 -44 C 29.125 -42.894531 29.960938 -41.601562 30.515625 -40.125 C 31.078125 -38.65625 31.359375 -37.082031 31.359375 -35.40625 C 31.359375 -33.914062 31.222656 -32.425781 30.953125 -30.9375 C 30.691406 -29.445312 30.128906 -27.835938 29.265625 -26.109375 C 28.410156 -24.390625 27.171875 -22.472656 25.546875 -20.359375 C 23.929688 -18.242188 21.785156 -15.804688 19.109375 -13.046875 L 11.671875 -5.296875 L 32.078125 -5.296875 C 32.273438 -5.296875 32.460938 -5.238281 32.640625 -5.125 C 32.816406 -5.019531 32.972656 -4.859375 33.109375 -4.640625 C 33.242188 -4.421875 33.34375 -4.144531 33.40625 -3.8125 C 33.46875 -3.488281 33.5 -3.113281 33.5 -2.6875 Z M 33.5 -2.6875 "/></g></g></g><g fill="#ffffff" fill-opacity="1"><g transform="translate(263.126095, 102.105035)"><g><path d="M 35.484375 -13.34375 C 35.484375 -12.539062 35.363281 -11.910156 35.125 -11.453125 C 34.882812 -10.992188 34.546875 -10.765625 34.109375 -10.765625 L 28.8125 -10.765625 L 28.8125 -0.90625 C 28.8125 -0.707031 28.765625 -0.539062 28.671875 -0.40625 C 28.578125 -0.28125 28.40625 -0.164062 28.15625 -0.0625 C 27.914062 0.03125 27.601562 0.0976562 27.21875 0.140625 C 26.832031 0.191406 26.335938 0.21875 25.734375 0.21875 C 25.148438 0.21875 24.664062 0.191406 24.28125 0.140625 C 23.894531 0.0976562 23.585938 0.03125 23.359375 -0.0625 C 23.128906 -0.164062 22.972656 -0.28125 22.890625 -0.40625 C 22.804688 -0.539062 22.765625 -0.707031 22.765625 -0.90625 L 22.765625 -10.765625 L 3.40625 -10.765625 C 3.113281 -10.765625 2.867188 -10.800781 2.671875 -10.875 C 2.484375 -10.945312 2.3125 -11.078125 2.15625 -11.265625 C 2 -11.460938 1.890625 -11.742188 1.828125 -12.109375 C 1.765625 -12.472656 1.734375 -12.941406 1.734375 -13.515625 C 1.734375 -13.972656 1.742188 -14.382812 1.765625 -14.75 C 1.796875 -15.113281 1.847656 -15.445312 1.921875 -15.75 C 1.992188 -16.050781 2.085938 -16.335938 2.203125 -16.609375 C 2.328125 -16.890625 2.472656 -17.1875 2.640625 -17.5 L 19.53125 -46 C 19.65625 -46.1875 19.832031 -46.351562 20.0625 -46.5 C 20.289062 -46.644531 20.585938 -46.765625 20.953125 -46.859375 C 21.316406 -46.960938 21.765625 -47.03125 22.296875 -47.0625 C 22.828125 -47.101562 23.453125 -47.125 24.171875 -47.125 C 24.972656 -47.125 25.671875 -47.09375 26.265625 -47.03125 C 26.859375 -46.96875 27.332031 -46.890625 27.6875 -46.796875 C 28.050781 -46.703125 28.328125 -46.570312 28.515625 -46.40625 C 28.710938 -46.25 28.8125 -46.066406 28.8125 -45.859375 L 28.8125 -15.90625 L 34.109375 -15.90625 C 34.515625 -15.90625 34.84375 -15.691406 35.09375 -15.265625 C 35.351562 -14.847656 35.484375 -14.207031 35.484375 -13.34375 Z M 22.765625 -41.640625 L 22.6875 -41.640625 L 7.4375 -15.90625 L 22.765625 -15.90625 Z M 22.765625 -41.640625 "/></g></g></g><g fill="#ffffff" fill-opacity="1"><g transform="translate(300.750267, 102.105035)"><g><path d="M 33.5 -2.6875 C 33.5 -2.25 33.46875 -1.859375 33.40625 -1.515625 C 33.34375 -1.179688 33.253906 -0.898438 33.140625 -0.671875 C 33.035156 -0.441406 32.890625 -0.269531 32.703125 -0.15625 C 32.523438 -0.0507812 32.328125 0 32.109375 0 L 6.203125 0 C 5.859375 0 5.554688 -0.0390625 5.296875 -0.125 C 5.046875 -0.207031 4.832031 -0.34375 4.65625 -0.53125 C 4.476562 -0.726562 4.34375 -1.007812 4.25 -1.375 C 4.164062 -1.738281 4.125 -2.1875 4.125 -2.71875 C 4.125 -3.195312 4.140625 -3.617188 4.171875 -3.984375 C 4.210938 -4.347656 4.296875 -4.664062 4.421875 -4.9375 C 4.546875 -5.21875 4.695312 -5.5 4.875 -5.78125 C 5.050781 -6.0625 5.285156 -6.359375 5.578125 -6.671875 L 14.6875 -16.3125 C 16.78125 -18.53125 18.460938 -20.519531 19.734375 -22.28125 C 21.003906 -24.050781 21.984375 -25.660156 22.671875 -27.109375 C 23.359375 -28.554688 23.8125 -29.875 24.03125 -31.0625 C 24.25 -32.25 24.359375 -33.363281 24.359375 -34.40625 C 24.359375 -35.4375 24.1875 -36.414062 23.84375 -37.34375 C 23.507812 -38.28125 23.019531 -39.097656 22.375 -39.796875 C 21.738281 -40.492188 20.9375 -41.046875 19.96875 -41.453125 C 19 -41.867188 17.890625 -42.078125 16.640625 -42.078125 C 15.160156 -42.078125 13.832031 -41.867188 12.65625 -41.453125 C 11.488281 -41.046875 10.460938 -40.601562 9.578125 -40.125 C 8.703125 -39.644531 7.96875 -39.195312 7.375 -38.78125 C 6.78125 -38.375 6.335938 -38.171875 6.046875 -38.171875 C 5.878906 -38.171875 5.726562 -38.21875 5.59375 -38.3125 C 5.46875 -38.40625 5.359375 -38.5625 5.265625 -38.78125 C 5.179688 -39 5.113281 -39.289062 5.0625 -39.65625 C 5.019531 -40.019531 5 -40.453125 5 -40.953125 C 5 -41.316406 5.007812 -41.628906 5.03125 -41.890625 C 5.0625 -42.160156 5.101562 -42.390625 5.15625 -42.578125 C 5.21875 -42.773438 5.296875 -42.957031 5.390625 -43.125 C 5.492188 -43.300781 5.691406 -43.515625 5.984375 -43.765625 C 6.273438 -44.023438 6.773438 -44.367188 7.484375 -44.796875 C 8.191406 -45.234375 9.082031 -45.660156 10.15625 -46.078125 C 11.238281 -46.503906 12.425781 -46.863281 13.71875 -47.15625 C 15.007812 -47.445312 16.367188 -47.59375 17.796875 -47.59375 C 20.066406 -47.59375 22.050781 -47.269531 23.75 -46.625 C 25.457031 -45.988281 26.875 -45.113281 28 -44 C 29.125 -42.894531 29.960938 -41.601562 30.515625 -40.125 C 31.078125 -38.65625 31.359375 -37.082031 31.359375 -35.40625 C 31.359375 -33.914062 31.222656 -32.425781 30.953125 -30.9375 C 30.691406 -29.445312 30.128906 -27.835938 29.265625 -26.109375 C 28.410156 -24.390625 27.171875 -22.472656 25.546875 -20.359375 C 23.929688 -18.242188 21.785156 -15.804688 19.109375 -13.046875 L 11.671875 -5.296875 L 32.078125 -5.296875 C 32.273438 -5.296875 32.460938 -5.238281 32.640625 -5.125 C 32.816406 -5.019531 32.972656 -4.859375 33.109375 -4.640625 C 33.242188 -4.421875 33.34375 -4.144531 33.40625 -3.8125 C 33.46875 -3.488281 33.5 -3.113281 33.5 -2.6875 Z M 33.5 -2.6875 "/></g></g></g><g fill="#ffffff" fill-opacity="1"><g transform="translate(338.374429, 102.105035)"><g><path d="M 33.125 -13.40625 C 33.125 -11.257812 32.75 -9.320312 32 -7.59375 C 31.25 -5.863281 30.171875 -4.382812 28.765625 -3.15625 C 27.367188 -1.925781 25.644531 -0.976562 23.59375 -0.3125 C 21.539062 0.351562 19.222656 0.6875 16.640625 0.6875 C 15.066406 0.6875 13.597656 0.554688 12.234375 0.296875 C 10.867188 0.046875 9.65625 -0.25 8.59375 -0.59375 C 7.53125 -0.945312 6.644531 -1.3125 5.9375 -1.6875 C 5.238281 -2.0625 4.796875 -2.332031 4.609375 -2.5 C 4.429688 -2.664062 4.296875 -2.832031 4.203125 -3 C 4.109375 -3.175781 4.023438 -3.382812 3.953125 -3.625 C 3.878906 -3.863281 3.820312 -4.15625 3.78125 -4.5 C 3.75 -4.851562 3.734375 -5.285156 3.734375 -5.796875 C 3.734375 -6.671875 3.816406 -7.273438 3.984375 -7.609375 C 4.148438 -7.953125 4.394531 -8.125 4.71875 -8.125 C 4.925781 -8.125 5.347656 -7.925781 5.984375 -7.53125 C 6.628906 -7.144531 7.453125 -6.726562 8.453125 -6.28125 C 9.460938 -5.84375 10.632812 -5.425781 11.96875 -5.03125 C 13.3125 -4.644531 14.804688 -4.453125 16.453125 -4.453125 C 18.046875 -4.453125 19.445312 -4.65625 20.65625 -5.0625 C 21.863281 -5.476562 22.878906 -6.0625 23.703125 -6.8125 C 24.523438 -7.5625 25.140625 -8.445312 25.546875 -9.46875 C 25.960938 -10.5 26.171875 -11.617188 26.171875 -12.828125 C 26.171875 -14.160156 25.910156 -15.359375 25.390625 -16.421875 C 24.867188 -17.484375 24.109375 -18.398438 23.109375 -19.171875 C 22.109375 -19.941406 20.875 -20.53125 19.40625 -20.9375 C 17.945312 -21.351562 16.285156 -21.5625 14.421875 -21.5625 L 9.96875 -21.5625 C 9.769531 -21.5625 9.582031 -21.601562 9.40625 -21.6875 C 9.226562 -21.78125 9.070312 -21.921875 8.9375 -22.109375 C 8.800781 -22.304688 8.691406 -22.5625 8.609375 -22.875 C 8.523438 -23.1875 8.484375 -23.597656 8.484375 -24.109375 C 8.484375 -24.566406 8.519531 -24.945312 8.59375 -25.25 C 8.664062 -25.550781 8.765625 -25.789062 8.890625 -25.96875 C 9.023438 -26.15625 9.175781 -26.289062 9.34375 -26.375 C 9.519531 -26.457031 9.71875 -26.5 9.9375 -26.5 L 14.03125 -26.5 C 15.625 -26.5 17.050781 -26.703125 18.3125 -27.109375 C 19.582031 -27.523438 20.660156 -28.117188 21.546875 -28.890625 C 22.429688 -29.660156 23.109375 -30.582031 23.578125 -31.65625 C 24.046875 -32.738281 24.28125 -33.941406 24.28125 -35.265625 C 24.28125 -36.234375 24.125 -37.15625 23.8125 -38.03125 C 23.5 -38.914062 23.023438 -39.6875 22.390625 -40.34375 C 21.765625 -41 20.960938 -41.515625 19.984375 -41.890625 C 19.003906 -42.265625 17.875 -42.453125 16.59375 -42.453125 C 15.195312 -42.453125 13.910156 -42.238281 12.734375 -41.8125 C 11.566406 -41.382812 10.523438 -40.929688 9.609375 -40.453125 C 8.691406 -39.972656 7.929688 -39.519531 7.328125 -39.09375 C 6.722656 -38.664062 6.296875 -38.453125 6.046875 -38.453125 C 5.878906 -38.453125 5.726562 -38.484375 5.59375 -38.546875 C 5.46875 -38.609375 5.359375 -38.726562 5.265625 -38.90625 C 5.179688 -39.09375 5.117188 -39.347656 5.078125 -39.671875 C 5.046875 -39.992188 5.03125 -40.421875 5.03125 -40.953125 C 5.03125 -41.316406 5.039062 -41.640625 5.0625 -41.921875 C 5.09375 -42.203125 5.144531 -42.441406 5.21875 -42.640625 C 5.289062 -42.847656 5.375 -43.035156 5.46875 -43.203125 C 5.570312 -43.367188 5.738281 -43.566406 5.96875 -43.796875 C 6.195312 -44.035156 6.660156 -44.367188 7.359375 -44.796875 C 8.054688 -45.234375 8.914062 -45.660156 9.9375 -46.078125 C 10.96875 -46.503906 12.15625 -46.863281 13.5 -47.15625 C 14.84375 -47.445312 16.285156 -47.59375 17.828125 -47.59375 C 20.003906 -47.59375 21.914062 -47.3125 23.5625 -46.75 C 25.207031 -46.195312 26.578125 -45.410156 27.671875 -44.390625 C 28.773438 -43.378906 29.597656 -42.164062 30.140625 -40.75 C 30.679688 -39.34375 30.953125 -37.78125 30.953125 -36.0625 C 30.953125 -34.59375 30.757812 -33.222656 30.375 -31.953125 C 29.988281 -30.679688 29.421875 -29.554688 28.671875 -28.578125 C 27.921875 -27.597656 27 -26.765625 25.90625 -26.078125 C 24.820312 -25.390625 23.566406 -24.910156 22.140625 -24.640625 L 22.140625 -24.578125 C 23.765625 -24.410156 25.242188 -24.003906 26.578125 -23.359375 C 27.921875 -22.722656 29.078125 -21.921875 30.046875 -20.953125 C 31.015625 -19.984375 31.769531 -18.851562 32.3125 -17.5625 C 32.851562 -16.269531 33.125 -14.882812 33.125 -13.40625 Z M 33.125 -13.40625 "/></g></g></g><g clip-path="url(#701a505550)"><g clip-path="url(#d67fc59473)"><path fill="#969696" d="M 86.195312 0 L 708.320312 0 L 708.320312 168 L 86.195312 168 Z M 86.195312 0 " fill-opacity="1" fill-rule="nonzero"/></g></g><g fill="#ffffff" fill-opacity="1"><g transform="translate(295.597002, 113.999993)"><g><path d="M 38.890625 -16.78125 C 38.890625 -19.269531 38.007812 -21.179688 36.25 -22.515625 C 34.5 -23.847656 31.335938 -25.253906 26.765625 -26.734375 C 22.191406 -28.210938 18.570312 -29.671875 15.90625 -31.109375 C 8.644531 -35.035156 5.015625 -40.328125 5.015625 -46.984375 C 5.015625 -50.429688 5.988281 -53.507812 7.9375 -56.21875 C 9.882812 -58.9375 12.679688 -61.054688 16.328125 -62.578125 C 19.972656 -64.097656 24.066406 -64.859375 28.609375 -64.859375 C 33.179688 -64.859375 37.253906 -64.03125 40.828125 -62.375 C 44.398438 -60.71875 47.175781 -58.378906 49.15625 -55.359375 C 51.132812 -52.347656 52.125 -48.925781 52.125 -45.09375 L 38.9375 -45.09375 C 38.9375 -48.019531 38.015625 -50.296875 36.171875 -51.921875 C 34.328125 -53.546875 31.734375 -54.359375 28.390625 -54.359375 C 25.171875 -54.359375 22.664062 -53.675781 20.875 -52.3125 C 19.082031 -50.957031 18.1875 -49.164062 18.1875 -46.9375 C 18.1875 -44.851562 19.234375 -43.109375 21.328125 -41.703125 C 23.429688 -40.296875 26.519531 -38.976562 30.59375 -37.75 C 38.09375 -35.488281 43.554688 -32.6875 46.984375 -29.34375 C 50.410156 -26.007812 52.125 -21.851562 52.125 -16.875 C 52.125 -11.332031 50.023438 -6.988281 45.828125 -3.84375 C 41.640625 -0.695312 36.003906 0.875 28.921875 0.875 C 23.992188 0.875 19.507812 -0.0234375 15.46875 -1.828125 C 11.425781 -3.628906 8.34375 -6.097656 6.21875 -9.234375 C 4.09375 -12.367188 3.03125 -16 3.03125 -20.125 L 16.265625 -20.125 C 16.265625 -13.0625 20.484375 -9.53125 28.921875 -9.53125 C 32.054688 -9.53125 34.5 -10.164062 36.25 -11.4375 C 38.007812 -12.71875 38.890625 -14.5 38.890625 -16.78125 Z M 38.890625 -16.78125 "/></g></g><g transform="translate(350.924147, 113.999993)"><g><path d="M 2.90625 -24.21875 C 2.90625 -28.9375 3.8125 -33.140625 5.625 -36.828125 C 7.4375 -40.515625 10.050781 -43.367188 13.46875 -45.390625 C 16.882812 -47.410156 20.847656 -48.421875 25.359375 -48.421875 C 31.773438 -48.421875 37.007812 -46.457031 41.0625 -42.53125 C 45.125 -38.613281 47.390625 -33.285156 47.859375 -26.546875 L 47.9375 -23.296875 C 47.9375 -15.992188 45.898438 -10.140625 41.828125 -5.734375 C 37.765625 -1.328125 32.300781 0.875 25.4375 0.875 C 18.582031 0.875 13.113281 -1.320312 9.03125 -5.71875 C 4.945312 -10.113281 2.90625 -16.085938 2.90625 -23.640625 Z M 15.59375 -23.296875 C 15.59375 -18.785156 16.441406 -15.332031 18.140625 -12.9375 C 19.847656 -10.550781 22.28125 -9.359375 25.4375 -9.359375 C 28.519531 -9.359375 30.925781 -10.535156 32.65625 -12.890625 C 34.382812 -15.253906 35.25 -19.03125 35.25 -24.21875 C 35.25 -28.632812 34.382812 -32.054688 32.65625 -34.484375 C 30.925781 -36.921875 28.492188 -38.140625 25.359375 -38.140625 C 22.253906 -38.140625 19.847656 -36.929688 18.140625 -34.515625 C 16.441406 -32.097656 15.59375 -28.359375 15.59375 -23.296875 Z M 15.59375 -23.296875 "/></g></g><g transform="translate(401.812816, 113.999993)"><g><path d="M 18.28125 0 L 5.53125 0 L 5.53125 -67.5 L 18.28125 -67.5 Z M 18.28125 0 "/></g></g><g transform="translate(425.675119, 113.999993)"><g><path d="M 2.90625 -24.21875 C 2.90625 -28.9375 3.8125 -33.140625 5.625 -36.828125 C 7.4375 -40.515625 10.050781 -43.367188 13.46875 -45.390625 C 16.882812 -47.410156 20.847656 -48.421875 25.359375 -48.421875 C 31.773438 -48.421875 37.007812 -46.457031 41.0625 -42.53125 C 45.125 -38.613281 47.390625 -33.285156 47.859375 -26.546875 L 47.9375 -23.296875 C 47.9375 -15.992188 45.898438 -10.140625 41.828125 -5.734375 C 37.765625 -1.328125 32.300781 0.875 25.4375 0.875 C 18.582031 0.875 13.113281 -1.320312 9.03125 -5.71875 C 4.945312 -10.113281 2.90625 -16.085938 2.90625 -23.640625 Z M 15.59375 -23.296875 C 15.59375 -18.785156 16.441406 -15.332031 18.140625 -12.9375 C 19.847656 -10.550781 22.28125 -9.359375 25.4375 -9.359375 C 28.519531 -9.359375 30.925781 -10.535156 32.65625 -12.890625 C 34.382812 -15.253906 35.25 -19.03125 35.25 -24.21875 C 35.25 -28.632812 34.382812 -32.054688 32.65625 -34.484375 C 30.925781 -36.921875 28.492188 -38.140625 25.359375 -38.140625 C 22.253906 -38.140625 19.847656 -36.929688 18.140625 -34.515625 C 16.441406 -32.097656 15.59375 -28.359375 15.59375 -23.296875 Z M 15.59375 -23.296875 "/></g></g></g><g clip-path="url(#842418ff8a)"><g clip-path="url(#2c399a3781)"><path fill="url(#c2e063dc23)" d="M 0 0 L 0 168 L 125.535156 168 L 125.535156 0 Z M 0 0 " fill-rule="nonzero"/></g></g><g clip-path="url(#738aef6607)"><path fill="#969696" d="M 86.195312 0 L 134.222656 0 L 134.222656 167.914062 L 86.195312 167.914062 Z M 86.195312 0 " fill-opacity="1" fill-rule="nonzero"/></g></svg>